<?xml version="1.0" standalone="no"?>
<!DOCTYPE svg PUBLIC "-//W3C//DTD SVG 20010904//EN"
 "http://www.w3.org/TR/2001/REC-SVG-20010904/DTD/svg10.dtd">
<svg version="1.0" xmlns="http://www.w3.org/2000/svg"
 width="300.000000pt" height="237.000000pt" viewBox="0 0 300.000000 237.000000"
 preserveAspectRatio="xMidYMid meet">
<metadata>
Created by potrace 1.10, written by Peter Selinger 2001-2011
</metadata>
<g transform="translate(0.000000,237.000000) scale(0.100000,-0.100000)"
fill="#000000" stroke="none">
<path d="M225 2361 c-6 -6 -27 -12 -48 -14 -56 -6 -58 -17 -3 -17 42 0 76 15
76 34 0 9 -15 7 -25 -3z"/>
<path d="M307 2356 c-4 -9 -14 -12 -26 -9 -20 5 -21 1 -21 -70 0 -41 -3 -89
-6 -106 -6 -29 -5 -31 22 -31 l29 0 0 -170 0 -170 -27 0 -28 0 0 -169 0 -170
28 -3 c19 -2 26 -7 22 -18 -3 -8 -5 -84 -5 -168 l0 -152 -27 0 c-25 0 -27 -3
-30 -47 -2 -27 -5 169 -6 434 -2 378 1 482 10 486 30 10 -6 20 -69 18 -76 -2
-101 -11 -30 -11 25 0 48 -4 51 -9 3 -5 7 -230 7 -500 1 -406 4 -489 15 -480
7 6 17 8 23 5 5 -3 11 1 15 9 9 25 34 18 32 -10 -1 -23 -10 -29 -45 -28 -9 1
-10 -2 -3 -9 6 -6 26 -11 44 -12 31 -1 33 -3 32 -36 0 -19 -4 -44 -9 -55 -8
-20 -8 -20 15 0 23 20 23 20 13 0 -12 -23 -8 -148 6 -203 5 -21 7 -59 4 -87
-2 -27 -9 -137 -15 -244 -11 -178 -10 -196 6 -224 13 -24 14 -32 4 -39 -25
-16 -61 -21 -87 -12 l-26 10 3 232 c3 183 1 237 -10 249 -11 14 -14 -23 -18
-228 -6 -276 -6 -274 66 -285 36 -5 59 0 121 24 207 82 310 111 508 147 72 13
144 26 160 30 l30 7 -35 -31 c-19 -17 -47 -36 -62 -43 -15 -7 -24 -16 -21 -21
3 -4 -7 -26 -21 -47 -14 -22 -26 -42 -26 -46 0 -3 -9 -19 -21 -35 -11 -16 -17
-29 -12 -29 4 0 32 39 62 88 35 58 70 100 103 125 49 38 52 39 281 78 128 21
239 42 247 45 8 3 69 10 134 15 66 4 124 13 130 19 7 7 4 10 -9 11 -11 1 -31
3 -45 5 -50 7 -201 -8 -214 -22 -8 -7 -34 -18 -58 -23 -55 -13 -794 -135 -913
-151 -49 -7 -126 -25 -170 -41 -44 -15 -81 -26 -83 -24 -2 1 2 169 7 373 11
389 8 481 -18 522 -14 22 -16 71 -13 415 l3 390 91 -3 c113 -4 142 2 135 28
-3 13 0 20 9 20 8 0 14 4 14 8 0 5 -40 9 -88 10 -48 0 -92 1 -97 3 -6 1 -21 1
-34 0 -36 -2 -16 -15 27 -18 20 -2 44 -4 52 -5 8 0 20 0 25 2 32 8 61 -1 61
-20 0 -24 -5 -25 -21 -4 -10 15 -13 15 -28 -1 -16 -15 -17 -15 -17 2 -1 17 -1
17 -11 1 -14 -25 -45 -23 -52 3 -6 23 -27 17 -27 -7 0 -19 -26 -18 -34 1 -3 9
-3 130 1 270 5 227 4 255 -9 255 -9 0 -18 -6 -21 -14z m-16 -96 c5 0 9 -18 9
-41 0 -64 -25 -44 -27 22 -1 30 1 46 4 37 2 -10 9 -18 14 -18z m-6 -667 c-6
-33 -25 -46 -25 -18 0 8 4 15 9 15 5 0 7 34 5 76 -2 42 -1 81 4 88 9 14 15
-118 7 -161z"/>
<path d="M92 2293 c27 -2 69 -2 96 0 26 2 4 3 -48 3 -52 0 -74 -1 -48 -3z"/>
<path d="M160 2260 c-59 -7 -53 -11 23 -15 34 -2 47 1 47 11 0 8 -3 13 -7 12
-5 -1 -33 -4 -63 -8z"/>
<path d="M80 2209 c-44 -5 -35 -6 48 -7 65 -1 102 2 102 8 0 11 -42 11 -150
-1z"/>
<path d="M140 2171 c-31 -7 -28 -8 28 -12 45 -3 62 -1 62 9 0 13 -32 14 -90 3z"/>
<path d="M172 2133 c-55 -5 -44 -23 14 -23 28 0 43 -4 39 -10 -3 -5 -21 -10
-40 -10 -19 0 -37 -4 -40 -10 -4 -6 12 -10 39 -10 25 0 46 -4 46 -10 0 -5 -5
-10 -11 -10 -5 0 -7 -4 -4 -10 3 -5 13 -10 21 -10 21 0 20 96 -2 104 -9 3 -16
5 -17 4 -1 -1 -21 -3 -45 -5z"/>
<path d="M2179 2048 c0 -2 -2 -28 -5 -59 -3 -43 -1 -58 10 -62 10 -4 16 5 21
30 7 39 -2 93 -16 93 -5 0 -9 -1 -10 -2z"/>
<path d="M2046 2025 c-8 -6 -9 -26 -5 -55 6 -44 6 -44 7 -8 2 35 13 54 24 42
3 -3 2 -22 -3 -42 -4 -20 -6 -38 -4 -41 11 -10 35 25 35 51 0 21 6 31 20 35
11 3 20 9 20 13 0 12 -81 17 -94 5z"/>
<path d="M1837 2023 c-4 -3 -7 -35 -7 -70 0 -49 3 -63 15 -63 9 0 15 9 15 25
0 20 5 25 25 25 14 0 25 4 25 10 0 5 -11 12 -25 16 -35 9 -33 36 2 32 20 -2
29 2 31 15 3 14 -4 17 -36 17 -21 0 -42 -3 -45 -7z"/>
<path d="M1133 2007 c-11 -15 -8 -100 5 -152 l11 -40 -2 53 c-1 36 2 52 11 52
6 0 12 7 12 15 0 8 -4 15 -10 15 -5 0 -10 7 -10 15 0 9 9 15 24 15 22 0 44 16
35 24 -14 11 -69 13 -76 3z"/>
<path d="M1389 1991 c-16 -16 -29 -38 -29 -48 0 -27 42 -63 76 -66 26 -2 29 1
32 31 2 22 -2 34 -13 38 -22 9 -28 -1 -15 -25 14 -27 -9 -29 -33 -3 -21 23
-21 36 -1 56 12 12 20 13 35 6 16 -9 19 -7 19 9 0 16 -18 31 -37 31 -2 0 -18
-13 -34 -29z"/>
<path d="M1980 1977 c0 -25 -3 -52 -6 -61 -4 -12 0 -16 15 -16 20 0 22 4 19
57 -4 70 -28 88 -28 20z"/>
<path d="M1068 1973 c-3 -21 -2 -58 2 -83 4 -25 8 -37 9 -27 0 10 5 16 10 13
12 -8 7 112 -6 125 -7 7 -12 -1 -15 -28z"/>
<path d="M1512 1994 c-12 -8 -19 -20 -15 -26 3 -7 7 -30 8 -52 2 -42 25 -65
25 -24 1 22 1 22 15 4 8 -10 16 -24 18 -30 2 -6 7 -8 11 -4 4 3 3 15 -3 26 -7
14 -7 28 1 50 10 27 9 34 -7 51 -22 25 -24 25 -53 5z m38 -34 c9 -17 8 -20
-10 -20 -13 0 -20 7 -20 20 0 11 4 20 10 20 5 0 14 -9 20 -20z"/>
<path d="M1636 1995 c-37 -37 -45 -81 -30 -174 6 -40 5 -43 -14 -37 -18 6 -20
1 -24 -41 -6 -59 14 -84 45 -56 13 13 17 26 13 48 -5 27 -9 132 -7 161 2 22
45 10 51 -14 3 -13 8 -23 13 -23 4 1 11 1 16 1 11 0 -22 127 -37 142 -6 6 -15
4 -26 -7z m24 -45 c9 -18 8 -20 -15 -20 -23 0 -24 2 -15 20 6 11 13 20 15 20
2 0 9 -9 15 -20z"/>
<path d="M1720 1995 c-11 -13 -9 -43 6 -98 7 -22 24 -12 24 14 0 14 7 19 26
19 35 0 26 23 -12 31 -27 6 -28 7 -7 14 12 4 24 13 27 21 7 19 -48 19 -64 -1z"/>
<path d="M623 1893 c-21 -3 -33 -10 -33 -20 0 -11 5 -13 18 -7 9 4 27 7 39 7
14 -1 20 4 16 13 -3 8 -6 13 -7 12 0 0 -16 -3 -33 -5z"/>
<path d="M2383 1835 c-24 -17 -38 -64 -28 -95 6 -19 46 -37 73 -32 6 2 12 -7
13 -20 1 -13 5 -3 10 22 5 25 7 51 4 58 -5 14 -55 17 -55 2 0 -5 5 -10 10 -10
6 0 10 -7 10 -15 0 -18 -10 -19 -31 -2 -19 15 -11 55 14 71 14 8 20 8 27 -4 8
-12 10 -11 10 6 0 12 -7 25 -16 28 -20 8 -16 8 -41 -9z"/>
<path d="M581 1819 c-31 -18 -33 -23 -29 -64 2 -31 -1 -46 -11 -50 -8 -3 -11
-15 -8 -32 3 -15 1 -34 -3 -42 -48 -91 -62 -134 -64 -207 -2 -59 -7 -80 -20
-89 -13 -10 -14 -14 -3 -18 24 -9 26 -57 6 -115 -15 -44 -17 -57 -7 -64 7 -5
18 -12 24 -16 14 -9 52 -116 60 -168 4 -25 0 -60 -10 -94 -9 -29 -16 -57 -16
-61 0 -5 28 -10 63 -11 61 -4 61 -4 31 -16 -17 -7 -45 -30 -63 -52 -28 -35
-33 -38 -70 -33 -44 6 -91 -2 -91 -16 0 -15 25 -19 68 -11 39 7 41 6 31 -12
-10 -19 -9 -19 23 -2 30 16 152 134 145 141 -2 1 -23 13 -48 26 -39 21 -44 27
-40 53 5 47 12 49 41 14 20 -24 29 -30 35 -20 5 9 4 11 -3 6 -7 -4 -12 -3 -12
3 0 5 -11 22 -25 37 -14 15 -25 35 -25 45 0 34 -28 124 -49 159 -34 56 -35 60
-24 109 6 25 12 96 12 156 2 99 5 116 31 173 16 34 31 62 34 62 2 0 23 -16 47
-35 23 -20 49 -35 58 -33 22 4 46 -22 61 -66 6 -20 15 -36 20 -36 4 0 11 -15
14 -33 3 -19 20 -46 36 -62 36 -35 37 -44 3 -70 -62 -48 -65 -54 -58 -101 5
-38 3 -47 -18 -66 -25 -24 -50 -97 -28 -84 7 5 11 -2 11 -18 0 -29 -9 -32 -30
-14 -8 8 -7 3 3 -14 9 -15 17 -41 17 -58 0 -17 5 -51 11 -76 11 -41 9 -47 -14
-82 -19 -29 -25 -51 -24 -90 1 -46 -17 -102 -32 -102 -4 0 -14 18 -24 40 -20
46 -28 52 -20 13 11 -49 7 -151 -7 -192 l-13 -41 -63 0 c-35 0 -65 -4 -68 -8
-2 -4 79 -9 180 -10 123 -1 183 1 179 8 -4 6 34 10 109 10 90 0 118 3 130 16
10 9 55 20 118 29 57 8 121 18 143 23 37 9 38 10 10 11 -195 11 -493 -8 -480
-29 3 -5 -17 -11 -44 -15 -36 -5 -57 -2 -79 9 -37 19 -45 42 -36 102 l7 47
571 -7 c1280 -16 1748 -17 1744 -4 -6 18 -169 22 -180 5 -6 -9 -10 -9 -15 -1
-7 10 -45 12 -249 16 -22 1 -47 -2 -54 -7 -9 -5 -15 -4 -18 3 -2 7 -8 10 -12
7 -10 -6 -532 -6 -710 1 -261 9 -1026 11 -1049 3 -23 -9 -23 -8 -18 27 8 45 9
47 39 35 30 -11 1088 -10 1088 2 0 4 5 5 10 2 14 -9 339 -17 352 -9 5 4 39 7
74 7 65 0 83 10 40 21 -20 5 -1153 11 -1211 6 -11 -1 -102 -3 -202 -6 -174 -4
-183 -3 -183 15 0 10 11 26 24 34 29 19 39 65 26 122 -5 24 -12 80 -15 125 -2
45 -7 85 -10 91 -5 7 18 14 28 7 1 -1 12 4 24 10 21 11 21 13 6 68 -16 62 -11
74 35 74 22 0 72 40 72 58 0 5 -11 19 -25 32 -14 13 -25 31 -25 41 0 9 -7 22
-16 29 -8 8 -21 28 -29 47 -8 18 -18 33 -24 33 -5 0 -7 9 -4 21 6 23 -40 75
-57 64 -14 -9 -12 9 3 24 10 10 8 15 -7 26 -17 13 -17 15 -3 21 10 3 17 17 17
29 0 13 4 26 9 30 5 3 8 31 7 63 -2 51 -5 58 -29 70 -46 23 -90 23 -126 1z
m69 -21 c0 -5 4 -6 10 -3 5 3 19 0 30 -8 19 -13 19 -14 0 -45 -16 -26 -17 -32
-5 -32 19 0 19 -2 0 -46 l-15 -36 -27 34 c-15 18 -33 37 -40 41 -19 12 -14 96
6 106 17 10 41 4 41 -11z m-39 -138 c5 0 9 -6 9 -14 0 -8 13 -25 28 -38 38
-31 45 -45 24 -44 -16 1 -102 85 -102 101 0 4 7 4 16 1 9 -3 20 -6 25 -6z m75
-1245 c18 -13 16 -14 -22 -15 -41 0 -67 21 -44 35 6 4 10 16 10 28 0 21 1 20
18 -6 10 -15 27 -34 38 -42z m354 15 c-8 -5 -40 -9 -70 -9 -50 2 -52 2 -20 9
55 12 108 12 90 0z"/>
<path d="M2080 1805 c0 -19 -4 -35 -9 -35 -5 0 -8 -11 -7 -25 1 -29 11 -32 32
-10 23 22 34 18 34 -12 0 -23 2 -25 13 -13 17 19 11 133 -6 127 -7 -2 -11 -16
-9 -31 2 -18 -2 -26 -13 -26 -10 0 -15 10 -15 30 0 17 -4 30 -10 30 -5 0 -10
-16 -10 -35z"/>
<path d="M2175 1831 c-8 -15 6 -92 17 -89 5 2 9 7 9 11 -1 4 -1 25 -1 47 0 38
-12 52 -25 31z"/>
<path d="M2300 1803 l0 -38 -21 33 c-24 37 -39 41 -39 10 0 -13 -3 -40 -6 -60
-5 -31 -4 -38 10 -38 12 0 16 9 16 35 0 47 14 44 29 -6 10 -34 15 -38 27 -28
19 15 16 120 -3 127 -9 2 -13 -9 -13 -35z"/>
<path d="M2802 1804 c-1 -18 3 -36 8 -39 6 -3 10 0 10 7 0 7 3 23 6 34 3 13 0
23 -9 27 -10 4 -14 -4 -15 -29z"/>
<path d="M1933 1810 c-7 -25 -12 -25 -29 -2 -9 12 -16 14 -24 6 -7 -7 -5 -17
10 -34 11 -13 20 -34 20 -47 0 -12 5 -23 10 -23 6 0 10 14 10 31 0 20 4 29 13
26 6 -2 11 -15 9 -28 l-3 -24 14 25 c11 21 11 26 0 33 -8 5 -11 17 -7 33 4 15
2 24 -6 24 -6 0 -14 -9 -17 -20z"/>
<path d="M1970 1809 c0 -14 5 -19 14 -16 11 4 13 -3 9 -34 -4 -26 -2 -39 6
-39 7 0 10 -4 7 -9 -3 -5 1 -14 8 -21 13 -10 14 -3 9 44 -5 53 -5 56 21 65 42
16 30 31 -24 31 -44 0 -50 -2 -50 -21z"/>
<path d="M1280 1747 c0 -43 -5 -78 -12 -85 -9 -9 -9 -12 0 -12 8 0 13 -19 14
-52 1 -56 3 -47 14 90 3 39 9 72 14 72 12 0 43 -98 37 -119 -2 -10 -1 -36 3
-57 8 -39 8 -39 9 14 1 33 5 51 11 47 6 -3 10 -2 10 4 0 5 -4 11 -9 13 -6 2
-6 21 -1 48 13 66 12 102 -2 97 -8 -2 -12 -15 -10 -30 4 -34 -11 -35 -26 -3
-6 14 -20 30 -32 36 -19 10 -20 8 -20 -63z"/>
<path d="M1059 1793 c0 -10 -2 -37 -5 -60 -4 -29 -2 -43 6 -43 6 0 10 -8 9
-17 -3 -40 1 -103 9 -103 4 0 6 35 6 79 -1 70 0 78 16 74 10 -3 17 -12 16 -20
0 -9 5 -18 12 -20 9 -3 12 12 12 56 0 61 -16 94 -22 44 -2 -17 -10 -29 -21
-31 -14 -3 -17 2 -15 24 2 15 -3 29 -9 31 -7 3 -13 -3 -14 -14z"/>
<path d="M1179 1763 c-17 -41 -19 -56 -11 -127 l9 -81 2 67 c0 36 4 73 7 82 8
20 34 21 34 1 0 -8 7 -15 15 -15 19 0 19 4 0 68 -9 29 -20 52 -26 52 -5 0 -19
-21 -30 -47z"/>
<path d="M1410 1788 c-21 -23 -28 -82 -10 -93 6 -4 21 -8 34 -11 18 -3 25 1
30 19 10 37 7 47 -15 47 -16 0 -19 -4 -14 -21 5 -15 3 -20 -6 -17 -22 7 -22
35 0 57 22 22 27 41 11 41 -5 0 -18 -10 -30 -22z"/>
<path d="M1711 1778 c-6 -18 -14 -59 -16 -93 l-5 -60 16 48 c12 33 22 47 35
47 14 0 19 -7 19 -26 0 -16 4 -23 11 -18 12 7 4 87 -12 117 -15 27 -36 20 -48
-15z"/>
<path d="M1840 1778 l0 -33 -20 25 c-24 31 -32 23 -27 -26 3 -34 5 -36 12 -16
l8 23 23 -22 24 -22 0 51 c0 29 -4 52 -10 52 -5 0 -10 -15 -10 -32z"/>
<path d="M969 1779 c-6 -12 -8 -35 -4 -53 3 -17 6 -68 5 -113 -1 -46 2 -83 7
-83 4 0 6 29 5 65 -3 47 0 65 8 63 7 -2 17 4 22 13 9 12 6 21 -10 37 -30 30
-26 51 11 65 25 9 21 27 -8 27 -15 0 -29 -8 -36 -21z"/>
<path d="M1488 1783 c-3 -10 -2 -39 1 -63 5 -36 10 -45 25 -45 11 0 21 6 24
13 2 6 -5 12 -15 12 -17 1 -17 1 0 11 21 12 22 29 2 29 -8 0 -15 7 -15 15 0 9
9 15 21 15 29 0 18 24 -13 28 -18 2 -27 -2 -30 -15z"/>
<path d="M1813 1600 c-5 -20 -7 -20 -24 -4 -26 23 -47 11 -55 -31 -12 -63 47
-89 63 -27 6 25 6 25 17 -9 9 -26 16 -33 31 -31 33 6 45 23 45 63 0 36 -18 57
-21 24 -1 -8 -3 -19 -4 -25 -1 -5 -3 -14 -4 -20 0 -5 -5 -10 -11 -10 -5 0 -10
20 -10 45 0 46 -17 62 -27 25z m-33 -32 c0 -7 -4 -19 -9 -27 -11 -17 -25 3
-17 24 7 18 26 20 26 3z"/>
<path d="M1916 1613 c-3 -3 -6 -28 -6 -54 0 -40 4 -49 21 -54 16 -5 20 -13 15
-33 -5 -26 -5 -26 9 3 19 41 19 63 -2 61 -15 -1 -17 6 -15 35 3 35 -8 56 -22
42z"/>
<path d="M1992 1559 l-3 -60 38 6 c21 3 42 10 47 15 22 22 -27 100 -64 100
-12 0 -16 -13 -18 -61z"/>
<path d="M2566 1596 c4 -17 0 -28 -14 -38 -12 -8 -24 -26 -27 -41 -6 -22 -4
-27 11 -27 46 0 64 12 64 41 0 16 -4 29 -10 29 -5 0 -10 5 -10 10 0 6 7 10 15
10 23 0 18 16 -10 28 -24 11 -25 10 -19 -12z"/>
<path d="M1707 1603 c-4 -3 -7 -20 -7 -37 -1 -26 -2 -28 -11 -13 -12 21 -41
23 -33 2 4 -8 2 -15 -4 -15 -5 0 -12 14 -15 30 -4 17 -13 30 -21 30 -12 0 -12
-7 -1 -51 17 -63 21 -68 39 -43 8 10 18 16 22 11 12 -11 18 -117 7 -117 -5 0
-15 -32 -22 -70 -11 -58 -11 -73 1 -87 10 -13 10 -17 0 -20 -6 -3 -10 -9 -6
-14 10 -16 24 -10 24 11 0 13 7 20 19 20 30 0 34 29 5 36 -18 5 -23 11 -19 23
4 9 11 61 16 116 4 55 12 116 17 136 9 36 3 66 -11 52z"/>
<path d="M1425 1590 c-3 -5 2 -15 11 -24 9 -10 13 -24 9 -36 -3 -10 -3 -36 1
-57 6 -31 8 -34 15 -18 4 11 8 39 8 61 1 34 5 43 23 48 17 4 20 8 11 17 -14
14 -71 20 -78 9z"/>
<path d="M1376 1556 c-6 -32 -9 -34 -34 -28 -25 7 -46 7 -79 3 -9 0 -12 -16
-12 -43 1 -29 3 -34 6 -16 5 33 33 45 50 22 12 -16 14 -16 31 -1 26 24 30 22
27 -20 -1 -21 -3 -49 -4 -63 -1 -24 -4 -26 -37 -22 l-36 4 7 -133 c4 -74 11
-140 15 -148 4 -8 5 19 2 59 l-5 72 32 -7 c24 -5 31 -3 31 8 0 8 -11 18 -25
21 -14 4 -25 11 -25 16 0 6 11 10 25 10 36 0 31 26 -6 34 -26 5 -29 8 -19 20
8 11 18 12 35 6 30 -11 40 2 24 28 -16 26 7 116 27 108 8 -3 14 -1 14 4 0 6
-5 10 -11 10 -6 0 -9 17 -8 42 4 51 -16 63 -25 14z"/>
<path d="M2145 1539 c-4 -11 -4 -23 -1 -26 3 -4 6 1 6 10 0 26 30 20 31 -5 l0
-23 10 23 c5 13 7 28 3 33 -10 17 -43 9 -49 -12z"/>
<path d="M2293 1503 c-7 -3 -12 -14 -12 -26 1 -17 2 -18 6 -4 2 9 8 17 13 17
15 0 30 -28 23 -45 -4 -13 -3 -16 5 -11 31 19 -2 80 -35 69z"/>
<path d="M1162 1398 c-15 -15 -16 -138 -2 -138 6 0 10 -10 10 -22 0 -13 5 -30
11 -38 7 -11 8 -5 3 23 -5 33 -4 37 14 37 12 0 24 5 28 11 12 20 12 108 0 117
-21 17 -52 22 -64 10z"/>
<path d="M1756 1369 c-3 -17 -6 -51 -6 -74 0 -41 2 -44 36 -55 19 -7 38 -9 41
-6 11 11 -7 36 -27 36 -18 0 -20 6 -17 61 2 67 -16 93 -27 38z"/>
<path d="M1860 1347 l0 -49 -18 23 -19 22 -5 -21 c-5 -17 -1 -23 18 -28 17 -4
24 -13 24 -30 0 -19 6 -24 25 -25 14 -1 31 -2 37 -3 7 -1 14 7 16 17 3 13 -3
17 -27 17 -23 0 -29 4 -25 15 4 8 15 15 25 15 10 0 19 7 19 15 0 8 -9 15 -20
15 -11 0 -20 7 -20 15 0 9 9 15 25 15 43 0 30 27 -15 32 l-40 4 0 -49z"/>
<path d="M2200 1335 c0 -62 1 -65 28 -71 15 -3 32 -7 39 -9 6 -2 14 3 17 11 9
22 9 22 -21 26 -26 3 -28 7 -31 56 -2 37 -7 52 -18 52 -11 0 -14 -15 -14 -65z"/>
<path d="M1587 1345 c-2 -25 1 -64 8 -87 l12 -42 6 78 c4 43 4 82 1 87 -12 20
-22 7 -27 -36z"/>
<path d="M2000 1383 c-44 -16 -53 -78 -16 -117 l23 -26 27 25 c30 28 32 38 11
59 -9 9 -15 21 -14 28 4 36 -1 42 -31 31z m9 -49 c-11 -14 -11 -18 4 -29 9 -6
14 -15 10 -19 -8 -8 -43 23 -43 40 0 13 31 36 39 28 2 -2 -2 -11 -10 -20z"/>
<path d="M2103 1368 c-10 -22 -33 -99 -33 -112 0 -16 29 -4 35 15 8 25 26 20
40 -9 10 -22 45 -31 45 -12 0 6 -9 28 -20 50 -11 22 -20 48 -20 59 0 10 -7 22
-16 25 -21 8 -19 9 -31 -16z"/>
<path d="M1845 1232 c-11 -12 -4 -19 20 -19 14 0 27 3 30 7 5 9 -42 20 -50 12z"/>
<path d="M1598 1160 c-1 -28 0 -50 5 -50 4 0 7 23 7 50 0 65 -7 65 -12 0z"/>
<path d="M2420 1164 c0 -17 -6 -28 -20 -31 -20 -5 -28 -23 -11 -23 18 0 41 32
41 56 0 13 -2 24 -5 24 -3 0 -5 -12 -5 -26z"/>
<path d="M2582 1164 c-10 -11 -10 -20 1 -46 l14 -33 6 27 c4 14 4 35 -1 46 -6
17 -9 18 -20 6z"/>
<path d="M2066 1143 c-4 -10 -4 -14 0 -11 4 4 16 -4 27 -18 14 -19 17 -28 8
-37 -6 -6 -11 -22 -11 -35 0 -20 2 -21 14 -9 8 8 14 20 14 28 -2 32 3 49 14
49 6 0 9 -3 5 -6 -9 -9 16 -32 29 -27 9 3 9 10 0 28 -6 13 -14 21 -18 19 -5
-3 -21 4 -37 15 -35 25 -37 26 -45 4z"/>
<path d="M2723 1148 c-27 -13 -42 -44 -16 -32 10 4 28 8 41 8 12 1 22 2 22 3
0 1 -3 8 -6 17 -7 18 -11 19 -41 4z"/>
<path d="M1882 1095 c-16 -19 -16 -23 2 -40 20 -20 32 -19 15 1 -10 12 -10 20
-1 35 14 22 3 25 -16 4z"/>
<path d="M2230 1079 c-20 -6 -16 -7 20 -9 30 -1 39 -4 27 -9 -18 -6 -18 -7 0
-23 10 -8 29 -21 41 -28 18 -9 22 -17 18 -36 -4 -14 -2 -24 4 -24 5 0 10 -4
10 -10 0 -5 -7 -10 -15 -10 -24 0 -18 -18 17 -49 24 -21 29 -32 24 -47 -5 -12
-10 -14 -13 -7 -2 7 -12 9 -21 6 -14 -6 -15 -4 -5 8 9 11 7 19 -7 37 -10 12
-22 22 -27 22 -5 0 -20 -21 -32 -46 -22 -44 -23 -47 -7 -87 9 -22 14 -42 12
-44 -9 -9 -38 13 -76 58 -31 37 -48 49 -68 48 -26 -1 -26 -1 6 -10 17 -5 32
-13 32 -17 0 -5 16 -27 35 -49 23 -27 47 -44 75 -51 25 -6 40 -6 40 0 0 5 5 6
10 3 6 -3 10 3 10 14 0 12 -4 21 -9 21 -5 0 -7 8 -5 18 3 9 -4 27 -15 39 -19
20 -28 43 -16 43 2 0 16 -5 30 -12 31 -14 38 -38 31 -110 -5 -50 -3 -56 14
-61 11 -3 20 -1 20 4 0 5 7 9 15 9 8 0 15 -5 15 -10 0 -7 7 -7 20 0 11 6 25 8
31 4 13 -8 507 -6 520 2 33 20 -16 24 -288 24 -164 0 -304 4 -312 9 -11 7 -10
13 4 35 13 19 16 37 11 65 -3 22 -3 46 0 54 5 13 9 12 29 -5 14 -12 21 -27 18
-36 -4 -9 -2 -13 4 -9 6 4 13 3 15 -3 1 -5 8 -6 15 -2 9 5 2 22 -23 58 -34 49
-48 109 -45 198 2 28 1 29 -17 13 -10 -9 -33 -20 -51 -23 -26 -5 -35 -3 -46
13 -17 25 -42 32 -75 22z m173 -182 c-6 -11 -43 32 -43 51 0 12 3 12 15 2 12
-10 15 -9 16 6 1 11 5 3 9 -16 5 -19 6 -38 3 -43z"/>
<path d="M2561 1030 c-1 -28 -55 -69 -66 -50 -3 5 -11 10 -17 10 -6 0 -3 -9 6
-19 10 -11 15 -25 11 -30 -3 -6 -1 -11 4 -11 6 0 11 6 11 13 0 16 28 43 50 48
12 3 14 12 9 34 -6 28 -7 28 -8 5z"/>
<path d="M2243 998 c3 -10 2 -18 -4 -18 -6 0 -6 -7 1 -19 5 -11 10 -34 10 -52
0 -49 14 -25 16 28 2 31 -3 51 -14 62 -15 15 -15 15 -9 -1z"/>
<path d="M2741 971 c6 -16 17 -32 24 -35 11 -4 11 2 -2 29 -20 42 -36 46 -22
6z"/>
<path d="M2527 843 c-2 -5 -1 -30 3 -58 l7 -50 2 42 c0 23 6 43 13 45 6 2 8
10 4 16 -8 14 -23 16 -29 5z"/>
<path d="M530 640 c0 -5 -6 -10 -14 -10 -7 0 -28 -15 -45 -32 -26 -27 -34 -30
-41 -18 -5 8 -6 18 -4 22 3 4 1 8 -5 8 -12 0 -24 -37 -16 -50 3 -5 12 -10 19
-10 9 0 12 -9 8 -25 -5 -29 -14 -31 -36 -9 -15 14 -16 14 -16 -1 0 -47 47
-115 80 -115 21 0 25 30 8 67 -13 27 -2 87 18 104 9 7 35 12 61 10 33 -2 43 1
38 9 -5 8 -20 9 -41 5 -19 -3 -34 -4 -34 -1 0 3 17 17 37 31 37 25 37 25 10
25 -15 0 -27 -4 -27 -10z"/>
<path d="M105 559 c-16 -4 -47 -11 -67 -14 -21 -3 -38 -10 -38 -14 0 -11 86
-4 111 9 10 6 27 10 39 10 12 0 18 5 15 10 -7 11 -18 11 -60 -1z"/>
<path d="M1865 489 c-26 -33 -45 -62 -43 -65 3 -2 26 25 51 61 59 82 53 85 -8
4z"/>
<path d="M2905 500 c3 -5 26 -10 51 -10 24 0 44 5 44 10 0 6 -23 10 -51 10
-31 0 -48 -4 -44 -10z"/>
<path d="M2851 468 c-1 -16 9 -18 68 -18 54 0 70 3 75 16 6 15 -1 16 -54 11
-34 -4 -65 -9 -70 -12 -4 -3 -11 1 -13 7 -3 8 -6 6 -6 -4z"/>
<path d="M2645 451 c-35 -6 -30 -7 44 -13 48 -4 87 -11 91 -18 4 -7 21 -12 36
-12 16 0 35 -5 42 -10 9 -8 12 -4 12 16 0 22 -4 26 -30 26 -17 0 -30 -5 -30
-12 -1 -8 -7 -5 -15 6 -16 21 -83 29 -150 17z"/>
<path d="M2648 413 c17 -2 47 -2 65 0 17 2 3 4 -33 4 -36 0 -50 -2 -32 -4z"/>
<path d="M2580 400 c0 -6 -35 -10 -82 -11 l-83 0 50 -14 c40 -10 141 -14 164
-6 6 1 -36 41 -44 41 -3 0 -5 -4 -5 -10z"/>
<path d="M2165 380 c-14 -7 3 -9 52 -7 40 1 73 5 73 10 0 10 -101 8 -125 -3z"/>
<path d="M2129 346 c-2 -3 -81 -7 -174 -9 -173 -5 -199 -8 -211 -20 -4 -4 73
-7 172 -6 105 1 169 4 154 9 -21 7 -18 8 20 9 43 1 98 20 59 21 -9 0 -18 -2
-20 -4z"/>
<path d="M2378 338 c23 -8 39 -8 55 0 19 9 13 11 -33 10 -53 0 -54 -1 -22 -10z"/>
<path d="M555 294 c-33 -18 -55 -34 -50 -34 6 0 37 16 70 35 33 19 56 34 50
34 -5 0 -37 -16 -70 -35z"/>
<path d="M2430 313 c-63 -8 -58 -23 8 -23 34 0 62 4 62 9 0 6 24 12 53 14 42
3 38 3 -18 4 -38 0 -86 -2 -105 -4z"/>
<path d="M1708 279 c-7 -4 -10 -10 -8 -12 9 -8 189 -13 184 -5 -3 4 -22 8 -42
8 -20 1 -56 5 -79 9 -23 4 -47 4 -55 0z"/>
<path d="M1358 243 c34 -2 90 -2 125 0 34 2 6 3 -63 3 -69 0 -97 -1 -62 -3z"/>
<path d="M2415 240 c-52 -5 -60 -16 -15 -21 32 -3 144 4 127 8 -9 2 -15 9 -12
14 6 9 -3 9 -100 -1z"/>
<path d="M1606 232 l-48 -3 36 -20 c28 -15 56 -19 123 -19 49 0 105 3 126 6
102 17 -89 46 -237 36z"/>
<path d="M1893 193 c-7 -2 -13 -9 -13 -14 0 -12 63 -11 115 1 45 10 60 5 24
-9 -16 -6 15 -8 96 -7 71 0 128 -3 140 -10 11 -6 31 -8 45 -4 24 6 24 6 5 14
-11 5 -38 9 -59 10 -22 1 -41 7 -44 14 -3 9 -41 12 -150 11 -81 0 -153 -3
-159 -6z"/>
<path d="M1630 165 c-7 -8 -20 -15 -29 -15 -13 0 -14 -2 -2 -9 12 -8 10 -19
-9 -70 -32 -86 -20 -86 16 0 l29 70 112 -3 c62 -1 115 1 119 5 4 4 -48 7 -116
7 -108 0 -121 2 -110 15 7 8 10 15 7 15 -2 0 -10 -7 -17 -15z"/>
<path d="M1160 154 c37 -8 140 -9 140 -2 0 4 -35 7 -77 7 -43 -1 -71 -3 -63
-5z"/>
<path d="M58 112 c-32 -8 -58 -19 -58 -24 0 -5 9 -7 20 -4 11 3 28 8 38 11 10
3 35 -4 56 -15 22 -10 43 -17 49 -13 5 3 -5 12 -22 20 -38 19 -39 30 -3 36 25
4 25 4 2 4 -14 0 -51 -6 -82 -15z"/>
<path d="M2269 111 c-1 -9 -1 -19 0 -23 0 -5 -3 -8 -9 -8 -5 0 -10 5 -10 10 0
15 -63 12 -85 -4 -19 -13 -18 -15 17 -21 52 -10 95 2 101 27 5 19 11 20 69 15
35 -3 54 -2 43 3 -11 4 -44 9 -72 12 -44 4 -53 2 -54 -11z"/>
<path d="M2465 112 c-42 -8 -32 -17 20 -17 30 0 55 3 55 6 0 9 -49 16 -75 11z"/>
<path d="M2260 20 c0 -17 4 -18 31 -8 34 12 32 19 -6 23 -19 3 -25 -1 -25 -15z"/>
<path d="M2172 20 c-42 -10 -52 -20 -20 -20 40 0 88 12 88 21 0 10 -22 10 -68
-1z"/>
</g>
</svg>
