<?xml version="1.0" standalone="no"?>
<!DOCTYPE svg PUBLIC "-//W3C//DTD SVG 20010904//EN"
 "http://www.w3.org/TR/2001/REC-SVG-20010904/DTD/svg10.dtd">
<svg version="1.0" xmlns="http://www.w3.org/2000/svg"
 width="300.000000pt" height="212.000000pt" viewBox="0 0 300.000000 212.000000"
 preserveAspectRatio="xMidYMid meet">
<metadata>
Created by potrace 1.10, written by Peter Selinger 2001-2011
</metadata>
<g transform="translate(0.000000,212.000000) scale(0.100000,-0.100000)"
fill="#000000" stroke="none">
<path d="M1140 2025 c26 -74 34 -83 54 -54 13 20 14 26 2 44 -7 11 -19 20 -25
20 -7 0 -21 11 -32 25 -18 24 -18 23 1 -35z m50 -31 c0 -13 -4 -24 -10 -24 -5
0 -10 14 -10 31 0 17 4 28 10 24 6 -3 10 -17 10 -31z"/>
<path d="M1088 2036 c-21 -29 -16 -63 13 -91 l21 -20 -15 25 c-20 34 -30 70
-19 70 5 0 16 -18 25 -40 8 -22 21 -40 27 -40 13 0 7 23 -19 82 l-16 37 -17
-23z"/>
<path d="M1848 1989 c3 -50 0 -69 -7 -64 -6 3 -9 11 -5 16 3 6 3 33 -1 61 -5
34 -10 46 -16 37 -5 -8 -9 -10 -9 -5 0 5 -7 3 -16 -5 -11 -9 -14 -26 -11 -61
3 -41 0 -51 -16 -60 -17 -8 -23 -6 -38 13 -10 13 -19 27 -19 32 0 4 -11 7 -25
7 -24 0 -52 -34 -46 -55 1 -5 -3 -4 -10 3 -15 14 -63 17 -54 2 3 -5 15 -10 26
-10 10 0 19 -4 19 -10 0 -5 7 -10 15 -10 12 0 14 -7 9 -27 -9 -35 -44 -72 -61
-66 -7 3 -13 0 -13 -7 0 -7 -8 -10 -20 -7 -11 3 -22 2 -25 -3 -7 -11 -119 -3
-123 9 -2 6 -11 11 -19 11 -9 0 -13 6 -10 14 3 7 1 18 -5 24 -8 8 -7 13 5 18
9 3 17 12 17 19 0 7 10 16 23 20 21 7 28 9 52 15 6 1 18 2 28 1 9 -1 17 3 17
10 0 8 4 8 15 -1 12 -10 19 -10 27 -2 9 9 6 12 -12 13 -47 2 -75 -3 -115 -20
-53 -24 -77 -52 -73 -87 2 -23 -1 -29 -17 -29 -11 -1 -23 4 -27 10 -12 17 -9
35 6 35 38 0 17 78 -22 82 -9 0 -24 2 -32 3 -8 0 -25 -3 -37 -8 -18 -8 -20
-15 -16 -43 6 -38 -9 -63 -35 -60 -21 3 -36 63 -16 63 9 0 12 -8 8 -26 -6 -25
-6 -25 9 -6 19 24 23 60 5 49 -6 -4 -40 -8 -75 -8 -59 -1 -63 0 -63 21 0 27 8
29 38 7 13 -9 22 -11 22 -4 0 6 -12 16 -26 22 -22 10 -28 10 -40 -6 -7 -11
-11 -23 -8 -27 3 -5 -3 -10 -13 -10 -50 -4 -65 -7 -76 -18 -6 -6 -20 -11 -32
-11 -23 0 -121 -46 -131 -61 -3 -5 -12 -9 -20 -9 -8 0 -12 4 -9 10 3 5 -7 18
-23 27 -18 11 -28 25 -26 36 1 11 0 16 -3 13 -3 -3 -14 5 -25 17 -11 12 -16
15 -12 7 4 -8 13 -22 21 -32 8 -9 10 -18 5 -22 -11 -6 -42 35 -42 56 0 9 -3 9
-12 0 -8 -8 -17 -8 -32 -1 -12 5 1 -11 29 -36 58 -53 43 -61 -20 -9 -41 33
-44 34 -42 13 1 -13 16 -32 39 -47 21 -13 38 -29 38 -33 0 -5 6 -9 14 -9 7 0
19 -6 25 -13 8 -11 5 -19 -12 -34 -32 -30 -106 -65 -119 -57 -7 4 -21 8 -32 9
-12 1 -28 5 -37 9 -11 5 -21 -1 -33 -19 -19 -29 -16 -41 9 -31 11 4 14 12 10
26 -7 23 10 27 19 4 4 -12 14 -14 36 -9 34 7 39 -1 12 -21 -16 -13 -16 -15 3
-30 19 -15 19 -16 -12 -9 -18 4 -34 2 -38 -5 -3 -5 -11 -8 -16 -4 -5 3 -7 10
-4 15 4 5 -3 9 -14 9 -12 0 -21 -5 -21 -11 0 -5 4 -8 9 -5 5 3 11 0 14 -8 4
-10 -5 -15 -34 -18 -42 -4 -61 8 -38 23 11 7 11 9 -2 9 -9 0 -42 -19 -73 -41
l-58 -42 62 -29 c34 -16 64 -36 67 -45 4 -9 8 -11 12 -4 10 15 52 -9 76 -44
23 -34 52 -35 57 -2 2 14 12 24 28 27 16 3 25 12 25 25 0 12 9 22 25 26 14 4
20 7 13 8 -6 1 -18 4 -27 7 -11 4 -17 -2 -22 -21 -7 -27 -52 -54 -63 -37 -3 4
-32 25 -63 46 -32 21 -56 42 -53 46 8 12 71 3 112 -16 44 -22 55 -11 11 12
-24 13 -55 18 -115 18 -45 0 -80 3 -77 8 3 4 40 8 83 8 63 0 87 -5 127 -25 57
-29 61 -30 44 -10 -7 8 -16 15 -20 15 -17 0 -82 32 -76 37 3 3 18 6 34 7 16 1
36 7 45 14 14 12 25 5 84 -49 37 -35 74 -68 81 -74 7 -5 22 -18 32 -27 10 -9
28 -18 40 -20 15 -2 28 -19 44 -60 25 -62 21 -75 -10 -32 -40 56 -57 66 -98
59 -32 -5 -37 -3 -33 10 8 20 -42 34 -53 14 -10 -15 -4 -29 13 -28 9 0 8 2 -1
6 -13 5 -7 23 9 23 14 0 28 -43 18 -56 -5 -6 -7 -20 -4 -32 3 -17 -1 -22 -16
-22 -11 0 -22 6 -25 14 -3 8 -19 19 -36 25 -16 6 -27 15 -23 21 3 6 0 7 -9 4
-10 -4 -16 -1 -16 9 0 23 48 28 55 6 8 -24 41 -42 58 -32 8 5 3 9 -13 13 -52
12 -31 85 22 78 16 -3 25 -1 21 2 -4 4 -29 10 -55 12 -44 5 -47 4 -50 -20 -2
-18 -11 -28 -28 -32 -19 -4 -25 -12 -25 -31 1 -22 -3 -25 -25 -21 -19 3 -22 1
-10 -7 8 -5 18 -7 22 -5 4 3 8 -6 8 -20 0 -31 -12 -35 -69 -22 -58 12 -57 11
-41 41 15 29 1 55 -31 55 -19 0 -36 -40 -25 -58 3 -6 -5 -17 -19 -26 -19 -12
-25 -25 -25 -51 0 -21 5 -35 13 -35 6 0 22 -3 34 -6 19 -5 23 -2 23 18 0 13 7
33 15 44 15 19 15 19 30 0 11 -14 15 -16 15 -5 0 12 2 12 9 0 5 -8 14 -10 21
-6 10 6 12 0 8 -26 -6 -33 -6 -33 5 -6 12 29 38 35 56 14 8 -10 7 -17 -2 -26
-9 -10 -9 -11 4 -6 10 4 20 2 23 -4 7 -11 -32 -26 -42 -16 -3 3 -1 15 6 25 11
17 10 20 -9 20 -11 0 -18 -4 -15 -9 4 -5 0 -11 -6 -14 -9 -3 -7 -10 7 -21 24
-18 7 -21 -30 -4 -17 8 -24 17 -20 29 3 9 1 20 -5 24 -5 3 -10 -1 -10 -9 0 -8
-5 -18 -12 -22 -8 -5 -9 -2 -5 10 4 11 3 15 -4 10 -8 -4 -9 1 -4 15 7 24 -10
29 -19 5 -9 -23 -7 -36 4 -29 6 3 10 1 10 -4 0 -6 -6 -11 -12 -11 -7 -1 5 -7
27 -15 22 -8 45 -21 51 -29 6 -9 14 -12 18 -8 4 4 11 7 14 7 4 1 18 7 31 14
19 11 23 11 19 -1 -9 -28 -62 -42 -153 -43 l-89 0 -12 -53 c-7 -29 -17 -58
-23 -66 -6 -7 -9 -15 -6 -18 3 -3 -4 -27 -16 -54 -35 -79 -23 -144 27 -144 12
0 26 -4 29 -10 3 -5 -1 -10 -9 -10 -9 0 -16 -6 -16 -14 0 -8 -9 -18 -21 -21
-30 -10 -15 -18 19 -10 21 4 32 14 36 31 8 30 26 32 26 3 0 -19 4 -21 30 -15
34 6 40 -8 10 -24 -11 -6 -20 -17 -20 -25 0 -8 -8 -15 -17 -15 -10 0 -27 -7
-37 -15 -27 -21 -39 -19 -26 4 14 27 13 31 -10 31 -11 0 -20 -5 -20 -11 0 -5
4 -8 9 -5 5 4 7 -3 4 -14 -7 -27 19 -36 58 -20 37 16 49 4 49 -47 0 -17 5 -35
10 -38 13 -8 13 36 0 71 -8 21 -7 31 6 45 10 11 14 22 11 25 -16 16 27 35 82
36 45 1 66 -4 89 -21 17 -11 35 -21 42 -21 8 0 9 -6 4 -17 -4 -10 -9 -36 -12
-57 -4 -33 -2 -38 12 -33 10 4 16 1 16 -8 0 -20 -70 -16 -88 5 -12 13 -13 13
-8 -3 3 -10 0 -17 -7 -17 -8 0 -11 15 -8 48 4 50 17 68 38 50 18 -14 16 -35
-3 -46 -14 -8 -14 -10 1 -22 21 -17 26 -10 28 39 1 29 6 41 17 41 13 0 13 2 0
9 -8 6 -19 7 -24 3 -11 -6 -13 -7 -85 -17 -25 -4 -52 -10 -60 -14 -9 -5 -21
-6 -27 -4 -7 2 -10 -6 -6 -22 2 -14 7 -23 10 -21 3 3 11 1 19 -5 10 -9 13 -5
13 20 0 19 5 31 13 31 11 0 11 -9 -2 -50 -16 -53 -31 -65 -32 -27 0 21 -1 21
-9 2 -11 -26 -12 -35 -2 -34 24 4 32 -4 32 -35 0 -37 21 -66 48 -66 21 0 44
14 43 26 -2 21 12 74 18 69 3 -4 12 -21 19 -38 l12 -32 -4 38 c-3 20 -2 38 2
38 45 9 50 6 41 -19 -7 -18 -6 -28 3 -33 7 -4 9 -11 5 -15 -3 -4 -13 -1 -22 6
-12 10 -15 10 -15 -4 0 -9 -7 -16 -15 -16 -8 0 -15 5 -15 10 0 6 -5 10 -11 10
-6 0 -9 -8 -7 -17 2 -10 10 -17 16 -15 7 1 12 0 12 -3 0 -9 -42 -66 -68 -93
-26 -27 -25 -41 4 -56 10 -6 22 -15 25 -20 4 -4 16 -5 28 -1 25 8 27 -5 5 -46
-28 -55 -11 -68 21 -16 17 26 33 47 37 47 4 0 5 6 2 14 -4 9 3 16 18 19 l23 4
-22 2 c-46 2 -21 19 40 25 34 4 100 16 147 27 201 47 319 69 370 69 39 0 51 3
40 10 -17 11 -181 11 -225 0 l-30 -8 30 -2 c17 -1 -1 -7 -40 -11 -38 -5 -121
-23 -184 -40 -62 -16 -115 -28 -117 -26 -3 2 2 10 11 17 8 7 15 20 15 29 0 12
24 22 93 40 179 45 223 52 337 53 99 1 126 -3 190 -24 83 -29 68 -10 -19 22
-92 35 -267 67 -196 36 l30 -13 -35 -6 c-55 -11 -221 -9 -265 2 -51 13 -78 14
-70 1 3 -5 0 -10 -7 -11 -31 -3 -110 1 -117 5 -11 7 -1 66 12 66 6 0 24 12 39
27 27 26 29 26 42 8 7 -10 19 -19 27 -21 8 -1 25 -7 39 -12 23 -10 23 -11 4
-11 -12 -1 -27 -7 -33 -14 -9 -12 0 -12 57 -1 82 16 281 18 354 3 79 -15 167
-49 218 -82 l45 -29 -34 35 c-19 20 -37 36 -40 35 -6 -1 -29 7 -66 22 -50 21
-142 41 -218 47 -55 4 -106 15 -155 34 -80 32 -86 33 -77 19 9 -14 -38 -12
-57 3 -8 6 -22 22 -30 34 -12 19 -17 20 -38 10 -21 -10 -27 -10 -42 5 -19 19
-24 38 -10 38 4 0 14 16 21 35 12 34 13 34 37 19 21 -14 22 -18 9 -28 -12 -9
-6 -10 30 -8 26 3 42 8 39 14 -4 6 2 8 11 6 37 -7 28 -28 -12 -29 -31 0 -35
-2 -18 -10 16 -7 13 -8 -13 -4 -20 3 -31 1 -27 -5 8 -13 62 -13 70 0 5 8 11 8
20 0 16 -13 25 7 25 60 0 25 5 40 16 44 35 14 48 -33 16 -56 -19 -13 -36 -68
-21 -68 5 0 6 -6 3 -14 -4 -10 24 -14 138 -19 154 -6 224 -21 291 -64 59 -37
119 -103 149 -164 19 -37 27 -47 28 -32 0 37 39 129 71 170 75 95 231 187 399
237 47 14 76 26 65 27 -12 0 -4 5 18 11 40 11 60 36 55 71 -1 12 1 28 5 35 5
6 4 12 -2 12 -17 0 -30 -34 -20 -52 13 -23 2 -44 -24 -45 -12 -1 -37 -5 -55
-8 -23 -4 -32 -3 -27 4 3 6 13 11 21 11 16 0 18 9 5 29 -7 11 -10 9 -16 -8 -3
-11 -11 -21 -17 -21 -6 0 -8 -10 -4 -24 5 -19 2 -24 -17 -24 -12 0 -26 -1 -32
-2 -30 -7 -35 2 -35 55 0 67 -4 69 -97 58 l-68 -8 -6 -55 -6 -55 -1 48 c-2 38
-5 47 -20 47 -40 0 -58 63 -27 94 8 8 15 21 15 29 0 18 227 34 244 17 5 -5 7
-10 2 -10 -4 0 2 -12 13 -26 28 -35 26 -58 -4 -82 -21 -17 -25 -28 -24 -68 l1
-49 12 40 c7 22 11 42 10 45 -1 4 5 11 15 17 16 10 17 8 14 -15 l-5 -27 21 25
c11 14 18 32 15 40 -4 8 -9 26 -12 39 -5 23 -4 23 47 16 51 -7 52 -7 46 17 -6
23 17 56 34 51 3 -1 5 8 3 20 -2 17 0 19 10 9 19 -19 38 -14 38 10 0 12 7 30
17 40 18 20 4 25 -15 6 -6 -6 -15 -9 -18 -5 -8 7 61 73 99 93 21 11 27 12 28
2 0 -7 5 -3 11 10 12 25 28 28 46 10 9 -9 6 -15 -16 -25 l-27 -13 32 4 c19 3
36 0 42 -8 15 -18 58 -8 76 17 14 20 15 19 15 -20 l0 -41 39 19 c43 20 58 48
42 76 -8 15 -11 11 -12 -22 l-2 -40 -6 35 c-4 25 -8 30 -13 18 -4 -9 -5 -27
-2 -40 2 -12 1 -17 -2 -10 -5 10 -9 9 -18 -4 -11 -14 -12 -11 -12 20 1 25 6
36 16 37 10 0 9 3 -4 8 -16 6 -10 10 28 20 50 12 71 8 46 -10 -13 -10 -13 -10
0 -6 12 3 16 -4 16 -33 1 -35 -1 -38 -35 -49 -20 -6 -45 -17 -56 -25 -19 -14
-18 -15 10 -7 98 29 105 37 95 101 -7 47 -39 63 -87 43 -19 -8 -36 -13 -38
-11 -6 7 15 48 25 48 6 0 9 -4 6 -9 -5 -8 15 -8 34 -1 3 1 9 2 13 1 5 -1 6 2
4 6 -12 19 71 81 91 69 4 -2 15 11 24 30 10 20 13 36 8 39 -6 4 -10 1 -10 -4
0 -6 -7 -11 -15 -11 -26 0 -98 -41 -128 -73 -35 -38 -46 -30 -13 10 23 27 84
64 131 78 16 5 17 8 5 15 -9 6 -16 6 -18 0 -2 -6 -9 -10 -16 -10 -7 0 -33 -13
-58 -29 -37 -23 -48 -27 -52 -15 -3 8 -3 21 0 29 4 8 1 22 -6 30 -7 8 -9 15
-5 15 5 0 1 8 -7 18 -9 9 -19 27 -23 40 -3 12 -18 35 -32 50 -13 14 -20 28
-14 30 21 7 11 42 -15 54 -25 12 -35 6 -47 -27 -2 -5 -13 -2 -24 8 -19 16 -21
16 -27 2 -9 -23 -8 -24 14 -18 32 8 23 -7 -10 -19 -27 -9 -29 -12 -15 -22 14
-10 14 -16 4 -41 -7 -17 -11 -38 -10 -47 1 -10 -3 -18 -10 -18 -7 0 -9 10 -7
25 3 14 2 25 -1 25 -4 0 -7 10 -8 21 -1 12 -6 26 -12 32 -6 6 -8 -9 -5 -47 14
-188 17 -174 -32 -156 -15 6 -51 33 -80 60 -42 38 -66 51 -109 61 -31 7 -59
17 -62 22 -4 6 3 8 18 4 13 -4 46 -7 73 -7 45 0 53 -4 93 -45 24 -25 41 -50
39 -54 -3 -4 6 -13 20 -20 34 -15 36 -14 24 8 -5 11 -10 40 -10 65 0 25 -4 46
-10 46 -5 0 -10 -4 -10 -9 0 -5 -9 -11 -20 -14 -18 -4 -20 -2 -14 16 3 12 11
28 17 36 9 10 7 17 -8 27 -28 21 -80 17 -133 -10 -65 -33 -102 -41 -102 -21 0
9 9 15 24 15 13 0 50 18 82 40 64 43 114 52 150 26 11 -8 23 -11 29 -6 6 5 17
5 25 -1 13 -8 12 -9 -2 -7 -9 2 -18 -1 -20 -6 -2 -5 6 -10 18 -11 15 -1 24 7
32 27 10 27 9 28 -15 22 -24 -6 -25 -5 -19 19 6 25 5 26 -20 17 -38 -15 -46
-13 -34 9 16 30 12 33 -20 16 -30 -16 -42 -32 -16 -22 8 3 17 -1 20 -9 6 -17
-2 -20 -62 -27 -24 -3 -51 -12 -61 -21 -26 -24 -51 -20 -51 7 1 29 26 64 33
45 3 -7 6 6 6 29 1 36 7 46 48 83 26 22 39 38 30 34 -10 -3 -17 -1 -17 5 0 6
7 11 15 11 8 0 15 5 15 10 0 6 9 19 20 30 13 13 15 20 7 20 -22 0 -70 -57 -63
-75 4 -10 -2 -19 -18 -26 -13 -6 -30 -22 -37 -35 -7 -13 -16 -24 -21 -24 -5 0
-4 9 2 19 17 32 12 61 -12 70 -25 9 -41 -6 -37 -37 3 -30 -1 -42 -12 -42 -7 0
-9 10 -7 25 3 13 1 22 -3 19 -15 -9 -10 8 7 27 15 17 14 19 -10 25 -14 3 -26
10 -26 16 0 19 -18 -2 -22 -27 -5 -24 -4 -24 12 -10 9 8 18 15 21 15 7 0 4
-68 -4 -76 -4 -4 -7 6 -7 22 l0 29 -20 -25 -20 -25 0 25 -1 25 -11 -22 c-6
-13 -15 -23 -20 -23 -4 0 -8 10 -8 23 -1 20 -2 19 -18 -8 l-16 -30 -6 35 -6
35 -19 -40 c-15 -32 -19 -36 -22 -20 -8 33 -20 38 -25 11 -3 -15 0 -27 8 -30
9 -3 14 -22 14 -50 l0 -46 -27 13 c-16 6 -31 16 -34 21 -4 5 -15 6 -24 2 -14
-5 -16 -2 -12 14 3 11 1 20 -4 20 -5 0 -9 5 -9 10 0 19 37 10 48 -12 8 -18 11
-19 11 -6 1 10 -8 26 -19 36 -17 15 -19 24 -11 45 5 13 7 28 3 33 -4 4 -1 4 6
0 7 -4 19 -2 27 4 20 17 19 5 -1 -14 -8 -9 -11 -16 -6 -16 5 0 7 -12 5 -27 -2
-17 3 -10 13 17 22 61 30 67 38 28 l7 -33 16 38 c19 46 33 48 34 5 l0 -33 16
33 c9 17 20 32 25 32 4 0 5 -15 2 -32 l-6 -33 27 39 c15 21 28 55 30 75 1 20
0 24 -2 9 -2 -16 -9 -28 -15 -28 -6 0 -8 13 -5 33 4 25 -14 87 -26 87 -1 0 0
-32 1 -71z m-39 -11 l-2 -53 -7 45 c-7 42 -5 60 6 60 2 0 3 -24 3 -52z m-102
-45 c4 -10 11 -21 16 -24 5 -4 5 -9 -2 -13 -6 -4 -11 -3 -11 2 0 6 -9 8 -21 5
-23 -6 -40 12 -32 34 7 19 42 16 50 -4z m-432 -53 c-4 -19 -3 -30 4 -30 6 0
11 9 11 20 0 23 25 27 34 5 4 -11 -3 -19 -20 -25 -39 -15 -44 -13 -44 25 0 19
5 35 11 35 7 0 8 -11 4 -30z m-25 -14 c0 -32 -14 -55 -26 -43 -8 8 7 77 17 77
5 0 9 -15 9 -34z m-85 -82 c20 -30 23 -31 28 -14 6 25 24 26 30 3 4 -14 5 -12
6 5 1 14 7 22 19 22 10 0 23 5 30 12 9 9 12 8 12 -5 0 -9 1 -20 1 -24 1 -5
-13 -15 -32 -24 -24 -12 -34 -23 -34 -40 0 -15 -6 -24 -15 -24 -10 0 -14 8
-12 24 1 14 -1 22 -4 18 -4 -4 -13 -2 -21 4 -10 9 -13 8 -13 -5 0 -9 -4 -16
-9 -16 -15 0 -19 24 -7 44 8 14 8 20 -1 23 -7 3 -13 12 -13 21 -1 15 -2 15
-14 0 -18 -24 -26 -22 -26 5 0 13 -6 29 -12 36 -11 11 -9 12 9 2 17 -9 22 -7
28 7 6 14 9 12 18 -12 5 -16 20 -44 32 -62z m845 82 c0 -13 -23 -66 -30 -66
-8 0 -5 43 5 59 6 10 25 16 25 7z m-984 -38 c26 -50 64 -169 64 -199 0 -24
-15 -36 -144 -113 -79 -47 -150 -86 -158 -86 -15 0 -175 140 -208 182 l-20 27
132 82 c118 73 252 135 300 138 10 1 24 -12 34 -31z m-300 -29 c3 -6 -1 -18
-9 -27 -13 -12 -19 -13 -31 -3 -8 7 -12 19 -9 27 6 17 39 19 49 3z m1178 5
c20 -8 21 -24 2 -24 -8 0 -16 -6 -19 -14 -4 -11 2 -12 31 -5 20 4 40 6 44 3 4
-3 8 2 8 10 0 9 4 16 9 16 14 0 20 -38 7 -44 -8 -3 -7 -7 3 -14 9 -7 10 -12 2
-16 -6 -4 -15 3 -20 16 -9 21 -10 21 -11 3 -1 -20 -1 -20 -10 0 -7 17 -9 17
-9 3 -1 -10 -9 -18 -18 -19 -65 -3 -108 1 -111 11 -3 9 -7 9 -14 -1 -8 -11
-11 -11 -15 -1 -4 10 -8 10 -20 1 -12 -11 -13 -8 -7 17 12 51 22 62 29 33 6
-23 11 -26 41 -23 29 2 33 0 23 -12 -7 -8 -7 -14 -1 -14 9 0 22 22 22 39 0 5
-10 7 -22 7 -26 -2 -50 12 -42 25 6 10 74 12 98 3z m-810 -19 c10 -8 22 -13
25 -11 9 6 7 -47 -2 -61 -6 -9 -2 -13 12 -13 24 0 33 -13 25 -34 -12 -31 -51
-17 -45 17 1 6 -29 76 -46 110 -7 12 10 8 31 -8z m278 -26 c5 -14 181 -11 205
4 6 4 22 3 35 -2 25 -10 18 -15 -32 -24 -14 -2 -34 -8 -44 -12 -14 -6 -17 -5
-12 3 5 8 2 10 -8 6 -9 -3 -13 -10 -10 -15 3 -5 -5 -9 -18 -9 -13 0 -41 -2
-63 -5 -27 -3 -32 -2 -16 3 14 4 26 12 28 17 4 14 -52 15 -111 2 -40 -8 -46
-11 -31 -19 11 -7 20 -7 24 -1 8 13 61 26 61 16 0 -9 -100 -44 -140 -50 -14
-2 -32 -4 -40 -6 -8 -1 -17 3 -18 8 -2 6 -9 17 -15 25 -6 8 -2 7 10 -3 27 -24
54 -19 70 13 7 14 18 26 25 26 7 1 21 2 31 3 9 0 17 8 17 16 0 17 46 21 52 4z
m336 -60 c2 -5 10 -9 18 -9 9 0 13 -4 9 -9 -3 -5 0 -21 7 -36 10 -22 16 -25
37 -20 14 4 23 3 19 -1 -4 -3 -3 -14 2 -24 13 -25 1 -31 -26 -13 -33 21 -115
21 -147 0 -25 -16 -27 -16 -42 6 -14 20 -23 22 -85 20 -71 -2 -94 10 -42 22
16 3 66 8 112 10 45 2 87 8 93 14 6 6 19 11 29 11 10 0 18 5 18 10 0 12 7 13
-69 -10 -47 -14 -68 -16 -78 -9 -9 8 -67 2 -203 -21 -105 -18 -194 -30 -197
-27 -20 21 40 37 246 67 74 11 139 25 145 31 13 13 149 3 154 -12z m82 0 c0
-5 -6 -8 -12 -6 -7 1 -14 -9 -15 -23 -2 -21 -1 -22 5 -6 6 14 11 16 16 7 9
-14 -12 -43 -25 -35 -13 8 -11 58 3 72 12 12 28 7 28 -9z m608 -1 c19 -19 14
-28 -13 -28 -24 0 -34 18 -18 33 9 10 17 9 31 -5z m-425 -28 c-7 -28 -63 -29
-63 -1 0 14 8 21 28 23 36 5 41 2 35 -22z m-75 -6 c0 -18 -6 -22 -34 -22 -25
0 -34 4 -34 17 -1 14 -3 13 -15 -3 -15 -19 -15 -19 -15 5 0 22 4 24 49 25 44
1 49 -2 49 -22z m-728 -63 c14 -12 19 -21 12 -21 -7 0 -29 -16 -48 -35 -35
-35 -35 -36 -59 -17 l-24 19 29 28 c17 16 30 37 30 47 0 21 13 16 60 -21z
m747 7 c0 -13 4 -31 8 -42 7 -16 5 -17 -11 -8 -20 10 -64 -1 -64 -17 0 -5 -7
-12 -15 -15 -17 -6 -37 31 -26 49 6 10 7 16 10 35 1 13 38 13 46 0 9 -15 -15
-42 -32 -36 -7 3 -13 1 -13 -5 0 -20 45 -4 56 20 9 18 28 37 40 41 0 0 0 -10
1 -22z m490 8 c-3 -8 2 -16 13 -19 11 -3 22 -18 26 -33 4 -16 13 -37 22 -46
20 -23 11 -118 -20 -213 -18 -55 -28 -71 -44 -73 -18 -3 -29 11 -62 76 -50 97
-70 166 -52 187 6 8 9 23 5 35 -9 28 3 60 23 60 14 0 14 2 3 9 -24 15 -1 31
46 31 35 0 44 -3 40 -14z m-1037 -1 c0 -6 -46 -26 -68 -31 -7 -1 -11 3 -9 9 2
7 19 15 38 18 19 4 35 7 37 8 1 0 2 -1 2 -4z m780 -10 c0 -5 -4 -16 -8 -23
-11 -17 -42 -5 -35 14 4 12 1 12 -23 -1 -16 -8 -36 -15 -44 -15 -8 1 0 9 19
19 37 20 91 23 91 6z m-583 -59 c-10 -43 -12 -45 -43 -42 l-32 2 -6 -95 c-4
-53 -9 -132 -12 -176 l-5 -80 -31 1 c-35 1 -31 -22 -36 221 l-2 122 -35 -6
-35 -6 0 46 0 46 78 4 c42 1 98 4 123 5 l46 2 -10 -44z m205 4 c30 -31 30 -32
26 -118 -6 -108 -37 -193 -88 -244 -43 -43 -75 -48 -108 -18 -29 28 -37 60
-37 155 1 104 20 178 57 221 26 29 36 34 75 34 36 0 50 -6 75 -30z m-488 -2
c3 -13 6 -35 6 -50 0 -21 -4 -25 -19 -21 -18 5 -51 -20 -51 -39 0 -6 21 -29
46 -52 55 -49 74 -83 74 -130 0 -64 -27 -98 -92 -117 -31 -8 -31 -8 -42 44 -5
22 -3 27 13 27 27 0 43 24 39 62 -2 25 -13 40 -52 70 -58 43 -75 70 -76 118 0
44 23 78 64 96 49 21 83 18 90 -8z m661 -32 c71 -33 90 -58 89 -116 -1 -60
-24 -97 -75 -119 -26 -11 -37 -21 -34 -31 12 -39 35 -163 31 -167 -2 -3 -18 2
-34 11 -24 12 -32 26 -42 68 -18 77 -22 79 -41 18 -15 -49 -19 -55 -40 -52
-13 2 -28 7 -32 11 -4 5 17 91 47 192 31 101 56 189 56 196 0 19 18 16 75 -11z
m129 -6 c7 -7 5 -15 -6 -27 -16 -15 -19 -14 -46 15 -16 17 -27 33 -25 36 6 6
65 -12 77 -24z m-953 -187 l55 -198 -25 -11 c-14 -6 -29 -9 -32 -5 -8 8 -139
363 -139 376 0 9 51 32 75 34 6 1 35 -88 66 -196z m-714 155 c38 -19 117 -88
100 -88 -4 0 -30 18 -59 40 -29 22 -69 45 -88 51 -19 6 -39 16 -45 21 -15 16
43 0 92 -24z m942 -15 c17 -14 23 -32 26 -81 5 -73 5 -73 -72 8 l-42 45 27 22
c33 27 34 27 61 6z m194 -28 c-8 -106 -4 -204 11 -240 13 -31 14 -40 4 -47
-17 -10 -20 -10 -41 7 -17 12 -18 24 -14 112 3 54 6 122 6 151 1 45 4 53 19
50 12 -3 16 -12 15 -33z m576 16 l38 -20 -8 -48 c-4 -26 -8 -61 -8 -76 l-1
-29 55 47 54 47 31 -22 c16 -12 30 -22 30 -24 0 -1 -37 -28 -83 -61 -75 -52
-88 -67 -131 -142 -26 -45 -51 -83 -55 -83 -4 0 -16 6 -26 14 -19 13 -18 17
23 102 l42 89 -3 113 c-2 61 -2 112 0 112 2 0 21 -9 42 -19z m-1199 -13 c5
-13 41 -96 79 -186 l69 -163 -25 -10 c-36 -14 -38 -13 -61 41 -12 28 -25 50
-29 50 -5 0 -18 -8 -31 -18 l-22 -17 29 -47 30 -47 -27 -17 c-14 -10 -27 -13
-29 -7 -2 5 -51 77 -108 159 l-104 148 32 28 c28 23 33 25 42 11 6 -8 30 -46
53 -84 24 -38 47 -69 50 -69 4 0 17 8 29 18 l23 17 -46 88 c-25 49 -44 89 -42
90 1 1 17 10 33 19 39 23 44 22 55 -4z m1730 17 c0 -2 -18 -14 -39 -25 -22
-10 -53 -36 -70 -57 -17 -21 -31 -31 -31 -23 1 21 30 54 75 84 34 24 65 33 65
21z m-376 -41 c4 -27 2 -29 -32 -30 -20 0 -38 -6 -40 -12 -6 -18 -22 -4 -22
19 0 15 7 19 36 19 28 0 37 5 41 20 7 26 13 21 17 -16z m-1867 -50 c8 -21 -13
-42 -28 -27 -13 13 -5 43 11 43 6 0 13 -7 17 -16z m205 -51 c18 -16 41 -37 50
-48 9 -11 39 -43 67 -72 33 -34 52 -64 57 -87 3 -20 13 -41 21 -48 8 -7 19
-22 24 -35 10 -27 28 -31 24 -5 -1 9 0 13 2 7 4 -10 50 -35 65 -35 16 0 59 50
53 60 -3 6 -2 10 3 10 12 0 32 -46 32 -74 0 -21 -3 -22 -50 -16 -27 3 -48 4
-45 2 3 -3 1 -10 -4 -16 -12 -16 -20 -56 -14 -72 3 -8 16 -14 29 -14 34 0 30
-16 -7 -29 -18 -6 -34 -11 -35 -11 -2 0 -4 15 -4 33 0 20 -7 40 -17 49 -23 20
-71 28 -76 14 -9 -23 -17 2 -11 33 6 30 9 32 38 25 l31 -7 -35 41 c-19 22 -45
41 -56 41 -25 1 -47 24 -36 36 4 5 1 5 -5 1 -8 -4 -25 8 -45 30 -18 21 -40 45
-49 53 -23 23 -79 124 -79 144 0 26 34 21 72 -10z m592 -8 c21 -19 26 -31 20
-48 -6 -21 -21 -37 -35 -37 -8 0 -39 75 -39 95 0 23 24 18 54 -10z m-816 -23
c2 -15 -5 -25 -27 -37 -36 -18 -36 -17 -16 31 16 38 38 41 43 6z m1656 -30
c-8 -41 -43 -109 -60 -116 -7 -3 -14 14 -18 44 -6 46 -5 50 30 84 43 42 57 38
48 -12z m-670 -68 c9 -3 14 -9 11 -14 -2 -4 9 -20 25 -35 22 -21 30 -39 31
-64 1 -20 3 -27 6 -16 10 47 13 50 29 34 27 -28 -6 -59 -69 -63 -4 -1 -12 -8
-18 -16 -8 -13 -11 -12 -24 4 -15 19 -19 16 -16 -14 1 -15 -43 -42 -54 -32
-12 12 -4 52 10 52 18 0 19 -11 3 -30 -11 -12 -10 -12 5 -1 9 8 16 21 15 29
-4 20 54 51 60 33 5 -15 32 35 31 58 0 12 -3 10 -11 -6 -6 -12 -19 -23 -29
-26 -11 -3 -17 -2 -14 3 2 4 -5 16 -16 26 -17 15 -23 16 -41 5 -33 -21 -30 -7
10 37 43 48 36 43 56 36z m-764 -28 c0 -2 -21 -16 -46 -31 l-46 -27 23 -16
c14 -9 38 -15 60 -13 20 1 53 -5 74 -13 20 -9 41 -13 46 -10 5 3 8 1 7 -4 -2
-5 8 -19 22 -30 l25 -20 -39 -118 c-21 -65 -44 -124 -51 -131 -7 -7 -15 -17
-17 -23 -2 -6 -28 3 -61 20 -35 20 -69 31 -90 30 -58 -3 -74 0 -96 19 -15 14
-45 22 -90 27 l-67 6 2 42 c1 22 9 58 19 80 9 21 13 46 10 54 -3 9 -2 13 2 8
4 -4 15 21 24 56 l15 63 66 -1 c36 -1 75 -7 88 -14 17 -9 24 -9 33 3 24 29 87
61 87 43z m1208 -48 c27 6 44 6 48 0 9 -14 1 -18 -52 -23 -96 -9 -124 -17
-139 -38 -8 -11 -16 -19 -18 -16 -14 21 -36 82 -32 90 4 5 19 9 34 9 15 0 36
6 47 14 17 13 21 12 45 -15 24 -28 28 -29 67 -21z m-307 20 c0 -13 2 -33 5
-45 4 -26 -11 -31 -20 -7 -10 25 -7 74 4 74 6 0 10 -10 11 -22z m-877 -3 c3
-8 12 -15 19 -15 8 0 14 -7 14 -15 0 -11 -10 -15 -31 -13 -42 2 -49 7 -35 24
10 12 9 13 -5 8 -9 -3 -16 -1 -16 4 0 9 14 16 41 21 4 0 9 -6 13 -14z m962 -7
c4 -13 10 -25 13 -28 13 -10 39 -90 29 -90 -5 0 -23 9 -39 21 l-29 20 0 -33
c0 -25 3 -29 10 -18 7 11 10 11 10 2 0 -7 6 -12 13 -11 25 3 37 -1 37 -14 0
-8 -19 -17 -47 -23 -27 -5 -46 -12 -43 -15 3 -3 0 -12 -7 -20 -6 -8 -15 -42
-19 -77 -6 -59 -15 -75 -29 -52 -10 17 -25 11 -25 -10 0 -15 7 -20 25 -20 32
0 32 -14 1 -28 -18 -8 -22 -16 -19 -35 3 -14 -1 -28 -9 -32 -7 -5 -10 -5 -6 0
4 4 3 17 -3 27 -8 15 -14 17 -22 9 -19 -19 -39 -14 -28 8 9 16 7 20 -13 25
-41 10 -39 32 3 28 31 -3 40 2 65 33 22 28 29 49 30 91 2 44 7 57 28 74 14 10
29 16 34 12 4 -4 2 3 -6 16 -18 28 -34 30 -38 5 -8 -45 -13 -46 -38 -9 -14 21
-23 41 -19 44 4 4 10 2 12 -4 2 -6 10 -20 18 -30 13 -18 14 -17 15 14 0 33 16
42 38 20 9 -9 12 -6 12 15 0 31 11 34 45 11 l24 -16 -12 31 c-11 30 -39 42
-52 21 -3 -5 -10 -10 -14 -10 -12 0 -20 49 -10 56 5 3 10 -5 10 -18 1 -20 2
-21 6 -3 5 19 20 35 35 35 4 0 10 -10 14 -22z m-370 -27 c1 -16 -2 -19 -12
-10 -10 8 -13 5 -11 -18 2 -22 -3 -29 -19 -31 -29 -4 -39 25 -14 40 11 7 20
20 20 30 0 25 35 15 36 -11z m-94 -8 c22 6 22 5 4 -8 -13 -10 -15 -15 -6 -15
7 0 11 -2 8 -5 -12 -13 -52 13 -53 35 -2 21 -1 22 11 5 9 -12 21 -16 36 -12z
m216 4 c2 -12 -3 -17 -17 -17 -15 0 -21 6 -21 21 0 25 33 22 38 -4z m-68 -13
c0 -9 -9 -18 -19 -21 -20 -5 -38 -33 -21 -33 5 0 11 -8 13 -17 3 -12 5 -10 6
7 2 37 21 4 20 -35 0 -25 -2 -27 -9 -10 -7 18 -8 16 -12 -10 -4 -28 -4 -28
-13 13 -10 42 -28 54 -30 20 -1 -9 2 -15 7 -12 5 4 8 0 7 -7 -1 -8 4 -26 11
-42 12 -25 11 -30 -10 -52 -13 -14 -20 -31 -17 -39 8 -20 8 -19 -37 -1 -38 16
-49 31 -16 22 11 -3 18 -2 15 2 -2 4 3 18 12 31 18 25 27 70 14 70 -13 0 -49
-44 -60 -72 -5 -14 -9 -39 -8 -55 3 -32 -21 -67 -37 -54 -6 5 -27 12 -46 16
-19 4 -50 14 -69 21 l-34 14 21 23 c75 77 73 74 63 135 -5 31 -7 60 -5 63 5 8
79 -7 105 -22 22 -11 25 -29 7 -30 -7 0 -27 -17 -45 -38 -29 -34 -31 -40 -22
-76 5 -22 11 -53 14 -68 3 -15 10 -25 14 -22 5 3 7 15 3 27 -3 14 -2 19 6 14
7 -4 12 -1 12 8 0 9 -8 17 -17 17 -15 1 -16 2 -2 6 9 2 22 16 28 30 11 23 10
25 -3 13 -9 -7 -16 -8 -16 -3 0 13 35 45 42 38 2 -3 15 6 28 20 26 28 16 33
-18 10 -21 -15 -21 -15 -13 7 4 13 17 25 27 26 27 5 64 42 64 64 0 11 7 18 20
18 12 0 20 -7 20 -16z m159 -73 c8 -5 11 -16 7 -26 -5 -13 -13 -15 -33 -10
-24 6 -25 5 -13 -10 10 -12 23 -15 43 -11 26 5 29 3 24 -14 -3 -12 1 -23 10
-29 12 -7 13 -12 3 -30 -6 -13 -9 -29 -6 -37 4 -10 -2 -14 -18 -14 -15 0 -26
-7 -29 -20 -4 -14 -10 -18 -22 -14 -9 4 -27 1 -41 -6 -13 -8 -27 -11 -30 -7
-4 3 -16 2 -26 -4 -14 -8 -23 -8 -31 0 -6 6 -20 11 -30 11 -15 0 -18 5 -14 22
3 12 2 29 -4 39 -7 14 -5 19 10 24 10 3 22 16 25 29 4 17 11 23 25 19 11 -3
21 2 24 11 4 9 15 16 25 16 21 0 49 27 38 37 -3 3 4 12 17 19 28 15 29 15 46
5z m-461 -49 c22 -14 -5 -72 -33 -72 -30 0 -38 13 -30 50 7 31 34 40 63 22z
m663 -22 c16 -9 19 -22 19 -94 0 -112 -7 -139 -44 -182 l-32 -37 -22 35 c-18
30 -22 49 -21 119 2 112 9 141 39 156 31 16 36 16 61 3z m119 -55 c0 -24 -4
-46 -10 -50 -6 -4 -6 -15 0 -30 5 -14 6 -25 1 -25 -15 0 -18 22 -13 92 5 74
22 84 22 13z m50 -1 c0 -24 -4 -44 -10 -44 -5 0 -10 23 -10 51 0 31 4 48 10
44 6 -3 10 -26 10 -51z m30 11 c0 -25 -4 -45 -10 -45 -5 0 -10 20 -10 45 0 25
5 45 10 45 6 0 10 -20 10 -45z m28 -7 c-2 -33 2 -42 22 -55 14 -8 17 -12 8 -9
-10 3 -18 1 -18 -4 0 -9 -27 -20 -44 -19 -5 0 -12 -4 -15 -9 -8 -13 -51 -25
-52 -15 0 4 -2 18 -3 31 -2 17 2 22 21 22 47 0 63 17 63 66 0 30 4 43 11 39 6
-4 9 -25 7 -47z m-1014 20 c9 -12 16 -30 16 -39 0 -28 -40 -69 -66 -69 -29 0
-64 16 -64 30 0 5 13 1 30 -8 31 -18 53 -12 73 20 17 26 0 68 -27 68 -30 0
-49 -23 -41 -50 8 -26 39 -23 43 5 2 15 1 17 -6 6 -7 -9 -12 -10 -16 -2 -8 13
18 26 34 16 5 -3 10 -12 10 -20 0 -15 -27 -45 -40 -45 -17 0 -40 32 -40 55 0
25 33 55 62 55 9 0 24 -10 32 -22z m846 -35 c0 -12 9 -42 19 -66 17 -40 18
-46 4 -51 -26 -10 -35 4 -28 46 5 26 4 38 -3 34 -6 -3 -9 12 -8 39 1 43 16 41
16 -2z m-507 -74 c26 -49 58 -74 124 -99 32 -12 72 -30 89 -41 17 -10 34 -17
37 -14 4 3 5 2 3 -1 -3 -3 9 -27 25 -52 29 -47 36 -72 20 -72 -5 0 -12 13 -16
30 -4 16 -11 33 -17 36 -7 5 -9 -1 -5 -17 5 -21 5 -22 -7 -7 -7 10 -16 15 -19
11 -4 -3 -7 -2 -7 4 0 6 -16 20 -36 32 -19 12 -32 26 -29 31 10 16 20 12 51
-20 16 -16 33 -30 38 -30 6 0 -3 13 -19 30 -16 16 -60 41 -99 56 -46 18 -83
40 -106 64 -61 64 -87 107 -58 98 7 -3 20 -20 31 -39z m-49 -26 c-6 -23 -5
-25 15 -20 15 3 24 -1 31 -14 6 -10 15 -19 21 -19 6 0 17 -6 25 -14 12 -12 9
-14 -19 -13 -27 2 -33 7 -38 32 -6 29 -11 27 -13 -4 -1 -8 -7 -16 -15 -19 -8
-3 -11 0 -8 5 3 5 2 15 -4 23 -7 12 -9 11 -9 -6 0 -17 -5 -20 -25 -16 -28 5
-29 6 -14 33 5 11 14 17 19 14 5 -3 12 6 16 20 3 14 10 25 15 25 5 0 6 -12 3
-27z m-179 -13 c3 -6 -4 -14 -16 -18 -14 -6 -18 -11 -11 -16 6 -4 20 2 31 13
24 24 61 24 61 -1 0 -9 -4 -20 -10 -23 -5 -3 -10 1 -10 9 0 19 -16 21 -23 3
-7 -18 -57 -20 -63 -2 -11 27 27 58 41 35z m110 0 c8 -13 -4 -50 -16 -50 -13
0 -22 27 -15 45 6 17 22 20 31 5z m288 -17 c6 -10 13 -20 16 -23 19 -16 9 -30
-16 -24 -49 12 -73 23 -73 34 0 6 -4 9 -8 6 -5 -3 -15 3 -23 12 -13 16 -10 17
40 15 41 -1 57 -6 64 -20z m177 -74 c21 -40 21 -69 0 -69 -5 0 -10 8 -10 17 0
9 -3 14 -6 10 -9 -9 -34 19 -34 38 0 13 18 43 27 45 2 0 12 -18 23 -41z m-832
-11 c2 -29 -1 -39 -18 -48 -27 -14 -28 -14 -30 35 -3 56 -3 57 23 53 17 -2 23
-10 25 -40z m77 3 c-10 -16 26 -34 83 -41 40 -4 52 -9 39 -14 -27 -12 -102 2
-125 24 -12 11 -26 20 -32 20 -11 0 -14 23 -4 33 9 9 46 -12 39 -22z m-257
-22 c3 -41 -10 -64 -32 -56 -18 7 -21 49 -5 78 15 29 34 18 37 -22z m990 -39
c18 -23 30 -45 27 -49 -4 -3 -11 2 -17 12 -5 10 -24 34 -41 54 -18 20 -25 34
-17 31 8 -2 30 -24 48 -48z m-1028 -69 c0 -26 29 -22 36 6 4 13 11 23 16 23 6
0 7 -7 4 -16 -3 -9 -9 -26 -12 -39 -8 -34 -41 -28 -54 9 -13 37 -13 49 0 41 6
-3 10 -14 10 -24z m262 -31 c2 -6 14 -7 33 -2 17 5 37 7 45 4 8 -3 -5 -11 -30
-18 -40 -12 -46 -12 -57 3 -12 15 -13 15 -13 1 0 -23 -18 -32 -35 -18 -10 9
-15 7 -20 -9 -8 -26 -21 -27 -34 -3 -9 15 -11 15 -19 -7 -5 -14 -11 -20 -14
-15 -9 15 10 54 27 54 8 0 15 -4 15 -10 0 -5 5 -10 10 -10 6 0 10 7 10 15 0
18 21 20 38 3 9 -9 12 -8 12 5 0 18 26 24 32 7z m-122 -96 c17 1 26 5 23 14
-3 6 -1 12 5 12 6 0 17 3 26 6 24 9 20 -19 -4 -34 -12 -7 -25 -10 -29 -7 -11
6 -41 -38 -41 -60 0 -9 -5 -13 -10 -10 -6 4 -17 1 -25 -5 -12 -10 -15 -9 -15
4 0 10 -9 16 -25 16 -33 0 -32 12 5 33 17 10 30 26 30 36 0 27 14 35 23 13 6
-13 18 -19 37 -18z"/>
<path d="M980 1839 c0 -5 -4 -7 -10 -4 -6 3 -7 -1 -3 -10 4 -11 8 -13 13 -6 3
7 17 -11 30 -39 32 -68 36 -57 5 13 -24 55 -35 69 -35 46z"/>
<path d="M932 1823 c-10 -4 -10 -7 1 -17 8 -6 18 -22 22 -36 6 -22 2 -20 -29
15 -21 24 -33 32 -29 20 6 -18 5 -19 -12 -5 -28 22 34 -55 97 -121 29 -30 41
-41 26 -24 -16 17 -28 34 -28 38 0 16 27 0 49 -30 29 -39 45 -43 29 -8 -6 14
-17 25 -25 25 -7 0 -13 5 -13 11 0 5 4 8 10 4 5 -3 -3 20 -17 52 -25 57 -42
85 -30 51 4 -10 2 -18 -3 -18 -6 0 -10 6 -10 14 0 18 -22 34 -38 29z m28 -77
c1 5 10 -2 20 -15 11 -13 20 -18 20 -13 0 6 -4 14 -10 17 -5 3 -10 12 -10 18
0 12 39 -32 40 -44 0 -3 -11 -5 -25 -5 -26 2 -70 37 -87 71 -8 14 -1 11 21 -9
17 -17 31 -26 31 -20z"/>
<path d="M715 1715 c-66 -42 -121 -79 -123 -84 -4 -12 180 -181 198 -181 8 0
66 31 130 69 l116 69 -97 101 c-53 56 -98 101 -100 101 -2 0 -58 -34 -124 -75z
m135 48 c0 -5 27 -37 60 -73 33 -36 60 -70 60 -77 0 -6 -35 -31 -77 -54 -43
-24 -80 -46 -81 -51 -2 -4 -9 -5 -14 -2 -6 4 -8 2 -5 -3 4 -7 44 10 104 43 53
29 99 51 102 47 4 -3 1 -8 -6 -10 -6 -2 -48 -26 -93 -54 -45 -27 -86 -49 -91
-49 -5 0 -9 -6 -10 -12 0 -10 -2 -10 -6 0 -2 6 -8 10 -13 7 -5 -3 -38 23 -74
58 -36 35 -66 61 -66 58 0 -3 -5 1 -10 9 -13 21 -12 50 2 50 6 0 19 7 28 15
20 18 171 105 182 105 5 0 8 -3 8 -7z"/>
<path d="M2344 1578 c3 -13 6 -26 6 -30 0 -5 9 -8 20 -8 16 0 20 7 20 30 0 26
-4 30 -26 30 -22 0 -25 -3 -20 -22z"/>
<path d="M2310 1549 c0 -17 4 -28 10 -24 6 3 10 17 10 31 0 13 -4 24 -10 24
-5 0 -10 -14 -10 -31z"/>
<path d="M2385 1530 c-4 -6 -14 -8 -24 -5 -11 3 -26 -4 -41 -20 -18 -19 -22
-31 -17 -61 8 -47 80 -188 98 -192 10 -2 21 22 37 80 35 131 33 172 -8 193
-35 18 -37 18 -45 5z m65 -28 c0 -1 -12 -7 -27 -13 -34 -14 -113 -18 -113 -7
0 7 31 13 53 9 4 0 7 2 7 7 0 4 18 7 40 7 22 0 40 -1 40 -3z m5 -43 c-4 -5
-15 -9 -26 -9 -10 0 -19 -5 -19 -11 0 -5 -4 -7 -10 -4 -16 10 -12 23 8 27 35
7 52 7 47 -3z m-67 -20 c10 -16 9 -19 -4 -19 -9 0 -12 5 -8 12 5 8 -3 9 -29 5
-36 -6 -54 8 -19 15 38 8 49 6 60 -13z m62 -29 c0 -5 -11 -10 -25 -10 -14 0
-25 -4 -25 -9 0 -5 9 -7 19 -4 18 5 19 2 10 -39 -13 -57 -24 -66 -49 -43 -11
10 -18 20 -16 23 3 2 -2 11 -10 19 -8 9 -13 22 -10 29 3 8 1 14 -4 14 -6 0
-10 4 -10 9 0 9 27 14 98 19 12 1 22 -2 22 -8z"/>
<path d="M1677 1492 c-54 -59 -72 -261 -25 -270 49 -9 104 231 62 272 -19 20
-17 20 -37 -2z m27 -96 c-8 -57 -23 -93 -41 -101 -14 -5 -15 2 -10 47 7 63 26
108 44 101 9 -4 11 -18 7 -47z"/>
<path d="M1903 1386 c-12 -33 -20 -62 -19 -64 2 -2 16 0 31 4 18 4 32 18 41
40 15 37 12 54 -14 71 -16 9 -20 3 -39 -51z"/>
<path d="M560 1316 c0 -25 12 -46 26 -46 8 0 11 6 7 17 -4 11 -3 14 5 9 15 -9
16 -46 2 -46 -6 0 -5 -8 2 -20 7 -11 21 -20 31 -20 13 0 17 -5 13 -15 -3 -8
-1 -15 5 -15 6 0 8 -4 4 -9 -3 -5 -1 -12 5 -16 6 -3 13 1 16 10 6 14 8 14 26
-2 19 -17 20 -17 17 7 -3 19 -11 26 -32 28 -21 3 -27 8 -25 21 2 11 -16 37
-44 65 -51 50 -58 54 -58 32z"/>
<path d="M729 1158 c-1 -7 0 -20 1 -28 1 -10 -6 -8 -23 9 -21 19 -25 20 -23 6
3 -19 34 -41 44 -31 3 3 15 -3 27 -14 l22 -21 -4 25 c-3 14 -9 23 -14 20 -5
-3 -9 4 -9 15 0 22 -19 40 -21 19z"/>
<path d="M322 1007 c-18 -56 -35 -108 -38 -114 -4 -9 4 -13 24 -13 40 0 120
-25 142 -45 17 -15 19 -12 47 62 52 134 56 152 43 168 -16 20 -97 45 -144 45
l-41 0 -33 -103z m171 69 c39 -17 48 -41 25 -65 -11 -11 -10 -12 0 -6 10 5 11
3 3 -11 -12 -24 -23 -54 -28 -78 -5 -28 -23 -46 -44 -46 -22 0 -130 28 -137
35 -5 5 42 160 56 188 6 12 79 2 125 -17z"/>
<path d="M573 1048 c-6 -7 -18 -38 -28 -68 -10 -30 -28 -77 -40 -105 l-22 -50
51 -1 c54 0 141 -37 131 -54 -3 -5 0 -7 7 -5 8 3 30 55 50 115 l36 109 -37 24
c-65 43 -130 58 -148 35z m120 -33 c19 -9 38 -23 41 -30 2 -7 -4 -37 -15 -67
-10 -29 -19 -60 -19 -68 0 -8 -6 -23 -14 -32 -11 -16 -18 -15 -89 9 -42 15
-77 32 -77 39 0 7 14 49 31 94 l32 82 37 -5 c20 -2 53 -12 73 -22z"/>
<path d="M308 853 c-22 -5 -24 -23 -3 -23 8 0 15 5 15 10 0 15 26 12 40 -5 7
-8 27 -14 47 -13 32 1 34 3 18 14 -10 8 -29 11 -42 8 -14 -4 -23 -2 -23 5 0
11 -20 13 -52 4z"/>
<path d="M505 810 c-3 -5 -4 -10 -2 -10 3 0 21 -7 42 -16 20 -8 34 -10 30 -5
-8 14 1 14 26 0 11 -5 17 -14 14 -19 -6 -9 33 -25 42 -17 2 3 -5 10 -16 17
-12 6 -19 15 -16 20 7 11 -41 25 -68 21 -10 -1 -24 3 -32 9 -9 7 -15 8 -20 0z"/>
<path d="M1438 742 c-10 -2 -15 -9 -11 -18 6 -17 23 -18 46 0 17 13 17 14 0
18 -10 2 -26 2 -35 0z"/>
<path d="M1040 996 c0 -33 35 -41 55 -13 14 20 13 22 -2 29 -36 14 -53 9 -53
-16z"/>
<path d="M1018 894 c-16 -16 -7 -34 17 -34 19 0 25 5 25 23 -1 21 -1 21 -14 4
-13 -17 -15 -17 -18 -2 -1 9 -6 13 -10 9z"/>
<path d="M1375 930 c-4 -7 -16 -10 -26 -7 -26 7 -37 -32 -14 -49 20 -15 17
-58 -5 -62 -21 -3 -43 47 -29 65 20 23 -8 15 -33 -10 -30 -30 -32 -77 -3 -78
59 -4 85 -1 99 10 9 7 22 11 31 7 9 -3 19 3 25 14 6 11 16 17 24 14 9 -3 15 5
18 25 3 19 0 32 -9 35 -7 3 -10 12 -7 20 4 11 0 13 -15 9 -12 -3 -27 0 -35 6
-11 9 -16 9 -21 1z m2 -44 c-1 -14 3 -25 8 -25 6 -1 10 9 10 21 0 12 5 23 11
25 17 6 37 -25 30 -44 -6 -14 -9 -14 -15 -4 -7 10 -10 9 -14 -3 -4 -9 -13 -16
-21 -16 -19 0 -38 34 -30 54 9 25 23 19 21 -8z"/>
<path d="M927 920 c-6 -25 28 -29 37 -4 9 23 8 24 -13 24 -10 0 -21 -9 -24
-20z"/>
<path d="M1569 904 c-10 -12 -4 -14 35 -14 28 0 46 4 46 12 0 6 -3 9 -6 6 -3
-4 -18 -2 -34 2 -21 6 -32 4 -41 -6z"/>
<path d="M1558 779 c-2 -39 0 -73 4 -75 3 -2 8 30 10 71 2 41 0 75 -4 75 -3 0
-8 -32 -10 -71z"/>
<path d="M1590 818 c0 -18 -3 -50 -6 -70 -5 -31 -4 -38 10 -38 13 0 16 11 16
54 0 30 3 61 6 70 4 11 1 16 -10 16 -11 0 -16 -9 -16 -32z"/>
<path d="M1629 803 c-2 -84 -11 -107 -42 -113 -26 -5 -27 -6 -13 -25 14 -19
15 -19 35 -1 11 10 20 21 19 25 -1 3 1 13 5 21 9 25 14 140 5 140 -4 0 -9 -21
-9 -47z"/>
<path d="M497 623 c-6 -33 2 -51 14 -32 11 18 11 59 0 59 -5 0 -11 -12 -14
-27z"/>
<path d="M580 379 c0 -6 -7 -17 -16 -24 -15 -10 -15 -12 -1 -18 8 -3 22 2 30
11 13 15 13 19 1 30 -10 9 -14 10 -14 1z"/>
<path d="M2155 1899 c5 -23 4 -30 -5 -27 -16 5 -96 -71 -104 -99 -4 -12 -2
-24 3 -28 7 -3 8 0 5 10 -7 17 81 109 96 100 4 -3 11 2 14 11 10 25 7 64 -5
64 -7 0 -8 -11 -4 -31z"/>
<path d="M1557 1893 c-4 -6 -24 -10 -45 -8 -20 1 -43 -2 -51 -9 -8 -6 -17 -10
-20 -9 -3 0 -18 -6 -32 -14 -31 -18 -28 -48 5 -60 28 -9 146 -10 146 0 0 4
-10 7 -23 7 -13 0 -28 5 -35 12 -7 7 -12 8 -12 3 0 -6 -5 -3 -10 5 -6 10 -10
11 -10 3 0 -8 -13 -13 -30 -13 -20 0 -30 5 -30 15 0 8 6 16 13 16 6 1 21 3 32
5 52 10 145 14 145 7 0 -5 -7 -19 -16 -31 -13 -18 -13 -22 -1 -22 8 0 22 15
30 32 17 34 10 48 -25 48 -9 0 -18 5 -20 12 -3 9 -6 9 -11 1z"/>
<path d="M2210 1781 c0 -5 -3 -16 -6 -24 -4 -12 0 -14 15 -10 30 8 33 17 10
31 -10 7 -19 8 -19 3z"/>
<path d="M2257 1740 c-8 -31 -3 -36 25 -22 17 8 19 11 6 11 -9 1 -18 9 -20 19
-3 13 -5 11 -11 -8z"/>
<path d="M2484 1717 c-48 -49 -49 -56 -15 -68 17 -6 31 -15 31 -20 0 -5 9 0
20 11 11 11 27 20 35 20 8 0 15 4 15 9 0 5 3 17 7 27 5 13 -6 9 -40 -15 -26
-18 -47 -28 -47 -23 0 5 16 20 35 33 40 28 42 34 16 49 -24 13 -20 14 -57 -23z
m25 -23 c-18 -19 -40 -34 -48 -34 -9 0 -1 15 24 40 21 21 42 37 47 33 6 -3 -5
-20 -23 -39z"/>
<path d="M2105 1672 c-39 -8 -33 -17 11 -17 39 0 50 -5 75 -33 18 -20 30 -44
30 -65 1 -23 3 -26 6 -9 5 27 -13 86 -32 102 -18 15 -66 27 -90 22z"/>
<path d="M290 1583 c-54 -36 -79 -60 -80 -76 0 -5 21 10 48 33 26 23 59 48 75
56 26 14 35 24 19 24 -4 0 -32 -17 -62 -37z"/>
<path d="M260 1476 c19 -6 50 -20 69 -29 18 -10 30 -14 26 -8 -11 18 -82 51
-107 50 -18 -1 -16 -4 12 -13z"/>
<path d="M2677 1444 c-11 -21 -13 -34 -6 -32 13 4 42 68 30 68 -4 0 -15 -16
-24 -36z"/>
<path d="M2639 1274 c-15 -7 -29 -23 -32 -35 -5 -18 -2 -20 16 -15 12 4 46 9
75 13 28 3 52 10 52 16 0 9 -59 5 -107 -9 -14 -4 -23 -2 -23 5 0 6 8 11 18 11
22 0 47 16 36 23 -5 3 -21 -1 -35 -9z"/>
<path d="M2637 1213 c-10 -3 -17 -12 -15 -21 5 -25 76 -26 83 -1 3 10 16 20
28 22 12 2 0 4 -28 4 -27 1 -58 -1 -68 -4z m63 -13 c0 -5 -9 -10 -19 -10 -11
0 -26 -3 -35 -6 -9 -3 -16 -1 -16 4 0 11 21 19 53 21 9 0 17 -3 17 -9z"/>
<path d="M325 1200 c2 -4 26 -13 52 -20 27 -8 53 -20 58 -27 6 -8 15 -9 24 -4
11 7 9 12 -10 22 -30 16 -131 40 -124 29z"/>
<path d="M2293 1192 c-24 -8 -43 -18 -43 -23 0 -5 -9 -9 -19 -9 -27 0 -36 -31
-15 -47 16 -11 19 -9 30 17 13 29 66 60 105 60 18 0 59 -36 59 -53 0 -5 -15
-6 -32 -2 -27 6 -31 5 -20 -6 14 -15 16 -49 3 -49 -17 0 -22 -50 -6 -73 19
-28 19 -100 0 -137 l-16 -30 31 0 c32 0 40 14 14 24 -8 3 -12 11 -9 16 4 6 8
28 10 49 2 21 8 49 15 61 8 15 8 20 1 16 -6 -4 -11 0 -11 8 0 29 35 17 54 -19
18 -33 18 -36 3 -53 -23 -25 -31 -75 -18 -101 9 -17 21 -21 57 -21 45 0 46 -1
39 -27 -4 -16 -8 -30 -11 -32 -2 -2 -30 -4 -61 -4 -51 0 -58 2 -61 20 -2 11 4
26 13 33 8 7 15 18 15 24 -1 6 -11 -1 -23 -15 -59 -71 -170 -92 -237 -46 -45
30 -47 44 -10 52 23 5 29 10 21 18 -32 32 6 167 54 189 30 13 33 28 6 28 -11
0 -23 -9 -26 -20 -8 -25 -25 -26 -32 -1 -3 11 -13 21 -24 24 -23 6 -25 -9 -3
-21 19 -10 20 -41 5 -97 -6 -22 -11 -54 -11 -71 0 -17 -7 -37 -15 -44 -9 -7
-13 -23 -11 -36 5 -26 -17 -44 -53 -44 -22 0 -30 33 -11 45 6 3 10 11 10 18 0
6 -22 -10 -49 -37 -40 -39 -64 -53 -137 -77 -49 -17 -109 -42 -133 -56 -44
-26 -44 -26 -38 -3 6 21 5 22 -16 4 -36 -31 -98 -98 -109 -119 -6 -11 10 0 36
24 56 50 132 87 271 129 162 50 259 72 269 62 5 -5 -20 -40 -64 -87 l-72 -78
-92 -23 c-100 -25 -241 -38 -250 -23 -4 5 20 25 51 45 66 41 64 47 -5 12 -56
-29 -122 -80 -153 -120 l-22 -29 39 26 c60 39 116 50 224 43 165 -11 554 -113
543 -142 -5 -15 -40 -18 -67 -8 -9 3 -14 9 -12 13 5 7 -164 53 -264 71 -120
23 -240 30 -312 20 -40 -6 -76 -14 -81 -19 -5 -5 15 -4 43 2 72 14 202 -4 440
-60 107 -25 218 -46 245 -47 50 0 51 -1 47 -28 -5 -32 50 -135 56 -106 2 9 -3
29 -11 45 -8 15 -18 43 -22 60 -3 18 -12 36 -19 40 -7 5 -18 18 -25 30 -6 13
-22 25 -36 29 -13 3 -26 12 -29 20 -3 9 -1 12 4 9 6 -3 10 1 10 9 0 18 16 21
25 6 4 -6 11 -8 16 -5 5 4 9 0 9 -7 0 -25 48 -65 92 -77 40 -11 48 -11 82 9
34 18 40 19 55 6 9 -7 32 -16 52 -19 31 -4 39 -1 49 19 11 19 10 31 -9 73 -11
27 -21 66 -21 85 0 40 -31 76 -65 76 -24 0 -108 42 -132 65 -13 13 -13 15 1
15 9 0 16 -4 16 -8 0 -4 19 -8 43 -9 35 -1 38 0 19 8 -13 5 -26 18 -29 29 -6
24 -21 26 -29 5 -8 -19 -43 -20 -50 0 -5 11 -10 12 -25 2 -14 -9 -21 -9 -30 0
-8 8 -18 9 -31 2 -17 -9 -94 -2 -84 8 2 3 20 8 39 13 30 6 35 5 30 -9 -5 -13
-2 -12 16 4 22 19 23 19 36 2 12 -17 14 -17 23 -1 12 21 42 12 42 -12 0 -15 4
-14 25 6 20 19 27 21 40 10 8 -7 15 -19 15 -26 0 -8 4 -14 9 -14 4 0 6 11 3
25 -2 15 0 25 7 25 19 0 12 18 -10 25 -20 7 -20 8 -3 26 19 21 30 16 37 -16 2
-11 4 -8 2 7 -2 32 5 35 70 32 42 -2 53 2 67 20 16 22 15 26 -8 74 -26 54 -25
91 2 123 24 27 28 74 9 93 -14 14 -26 16 -59 9 -38 -7 -99 -8 -186 -1 -30 3
-36 -1 -44 -25 -7 -20 -6 -37 3 -60 16 -41 26 -83 12 -49 -13 29 -38 38 -62
23 -16 -9 -19 -8 -19 6 1 28 35 88 48 86 17 -4 15 12 -3 27 -9 7 -13 15 -11
18 9 8 -19 29 -44 33 -14 3 -44 -2 -67 -9z m312 -69 c38 3 79 7 90 9 29 4 33
-50 5 -81 -25 -30 -29 -125 -5 -135 16 -6 22 -76 7 -76 -4 0 -63 -1 -130 -3
-130 -3 -132 -2 -132 48 0 13 6 30 14 38 24 24 30 82 12 118 -16 32 -21 80
-10 91 3 3 22 1 42 -4 20 -6 68 -8 107 -5z m-251 -438 c118 -32 186 -60 186
-76 0 -3 21 -9 47 -12 58 -6 73 -25 73 -92 0 -40 5 -56 20 -70 42 -38 8 -77
-54 -61 -19 5 -22 11 -19 46 4 47 -10 52 -27 10 -14 -33 -55 -60 -92 -60 -35
0 -87 36 -94 65 -4 15 -16 28 -30 31 -20 5 -24 13 -24 43 0 36 -1 37 -85 79
-47 23 -88 49 -91 56 -8 21 24 76 45 76 9 0 75 -16 145 -35z m-202 -40 c4 -21
1 -25 -18 -25 -24 0 -28 -10 -24 -57 2 -26 -26 -31 -62 -12 -19 10 -18 14 33
65 29 30 56 54 60 54 4 0 9 -11 11 -25z m-1 -51 c10 -13 10 -17 -2 -25 -23
-14 -29 -11 -29 16 0 29 12 32 31 9z m81 -18 c9 -14 -30 -46 -48 -39 -8 3 -13
11 -11 17 2 6 1 21 -4 33 -8 21 -6 21 24 11 18 -6 35 -16 39 -22z m56 -32 c8
5 12 0 12 -12 0 -11 8 -23 18 -27 16 -6 16 -7 0 -16 -10 -6 -15 -16 -11 -25 4
-12 0 -15 -14 -12 -11 1 -27 -3 -36 -11 -15 -12 -17 -11 -17 8 0 14 -6 21 -20
21 -23 0 -27 15 -5 24 8 3 12 12 9 21 -4 10 0 15 10 15 10 0 16 8 16 22 0 21
1 21 13 3 8 -10 19 -15 25 -11z m-205 -18 c26 -8 47 -11 47 -8 0 4 14 7 30 8
34 1 39 -10 11 -25 -13 -8 -34 -6 -72 5 -29 9 -65 13 -81 10 -15 -3 -28 -1
-28 4 0 7 13 13 41 19 3 0 27 -5 52 -13z"/>
<path d="M2485 1092 c-3 -7 -10 -10 -16 -6 -7 4 -10 1 -7 -7 3 -8 12 -12 19
-10 41 10 130 11 169 2 46 -10 65 -6 41 9 -11 6 -10 9 5 13 24 6 3 8 -118 11
-66 1 -89 -2 -93 -12z"/>
<path d="M2488 989 c-1 -39 1 -73 5 -76 18 -11 123 -14 147 -5 23 9 25 14 25
78 l0 69 -87 3 -86 3 -4 -72z m162 39 c0 -5 -10 -8 -22 -9 -13 0 -44 -2 -70
-5 -35 -3 -48 0 -48 9 0 10 18 13 70 13 38 -1 70 -4 70 -8z m-10 -49 c0 -5
-29 -9 -65 -9 -36 0 -65 4 -65 8 0 4 29 8 65 9 36 1 65 -2 65 -8z m-35 -41
c35 7 42 7 38 -4 -8 -21 -123 -19 -123 1 0 13 4 14 21 5 14 -8 34 -8 64 -2z"/>
<path d="M2631 892 c-34 -11 -54 -12 -87 -5 -25 6 -44 6 -44 1 0 -4 -12 -6
-27 -3 -16 3 -22 2 -14 -1 11 -5 11 -8 0 -15 -17 -10 -12 -11 118 -13 65 -1
93 3 93 11 0 6 8 14 18 16 14 4 14 5 -3 6 -17 1 -18 3 -5 11 20 13 4 11 -49
-8z"/>
<path d="M2210 674 c-6 -14 -10 -29 -10 -33 0 -8 51 -35 54 -29 1 2 7 19 13
40 10 33 9 37 -11 42 -33 9 -36 8 -46 -20z"/>
<path d="M2300 644 c-8 -23 -15 -32 -20 -24 -5 8 -9 7 -13 -5 -5 -12 4 -20 36
-34 41 -18 42 -18 45 0 3 16 15 19 94 21 l91 3 -36 17 c-30 14 -35 15 -30 3 3
-10 -1 -15 -11 -15 -10 0 -16 7 -14 16 2 9 -7 20 -19 25 -17 6 -23 5 -23 -6 0
-8 -9 -19 -21 -26 -20 -10 -21 -9 -14 20 5 24 3 31 -8 31 -9 0 -22 3 -30 6
-11 4 -19 -6 -27 -32z m46 -10 c-3 -9 -6 -22 -6 -30 0 -8 -7 -14 -15 -14 -8 0
-15 6 -15 14 0 26 12 46 27 46 10 0 13 -6 9 -16z"/>
<path d="M2367 583 c-12 -11 -8 -23 8 -23 8 0 15 -4 15 -10 0 -5 -7 -7 -15 -4
-10 4 -15 0 -15 -13 0 -25 28 -26 35 -2 4 10 18 28 32 39 l26 20 -40 0 c-22 0
-43 -3 -46 -7z"/>
<path d="M2546 572 c18 -11 45 -22 60 -25 29 -4 29 -4 3 -6 -24 -1 -26 -4 -20
-33 5 -24 13 -34 29 -36 20 -3 22 1 22 41 0 54 -10 63 -75 72 l-50 7 31 -20z"/>
<path d="M2479 553 c0 -11 -3 -13 -6 -5 -7 18 -20 15 -43 -10 l-20 -22 22 -13
23 -14 -22 6 c-14 4 -23 2 -23 -4 0 -12 20 -14 45 -4 15 5 15 8 -6 25 l-24 18
27 -4 c15 -3 30 0 34 5 3 5 9 7 14 4 4 -3 6 4 3 15 -7 25 -23 26 -24 3z"/>
<path d="M2545 520 c-3 -5 -3 -10 2 -10 4 0 1 -5 -7 -10 -12 -8 -12 -10 5 -11
17 -1 16 -2 -5 -9 l-25 -8 27 -1 c21 -1 26 3 25 19 -1 11 -5 20 -10 20 -4 0
-5 5 -2 10 3 6 4 10 1 10 -3 0 -8 -4 -11 -10z"/>
<path d="M2440 449 c-18 -15 -20 -19 -6 -15 14 5 17 2 12 -9 -3 -9 -2 -13 4
-10 6 3 10 0 10 -7 0 -8 5 -6 11 5 6 10 8 21 5 24 -3 4 -6 0 -6 -8 0 -12 -2
-12 -10 1 -5 9 -5 19 2 27 15 19 7 16 -22 -8z"/>
<path d="M2489 433 c-3 -18 -2 -33 2 -33 18 0 58 24 53 31 -3 5 1 9 8 9 10 0
9 3 -2 10 -17 11 -39 -5 -41 -29 -1 -9 -4 -2 -8 14 l-7 30 -5 -32z"/>
<path d="M2620 441 c0 -12 6 -18 15 -17 9 1 15 5 15 9 0 4 0 12 0 17 0 6 -7
10 -15 10 -8 0 -15 -9 -15 -19z"/>
<path d="M2642 413 c-29 -6 -19 -23 14 -23 15 0 24 6 24 15 0 8 -3 14 -7 14
-5 -1 -18 -4 -31 -6z"/>
<path d="M2260 519 c0 -4 -7 -14 -15 -22 -13 -13 -11 -16 12 -22 27 -6 52 13
31 26 -6 4 -8 11 -5 16 3 5 0 10 -8 10 -8 0 -15 -4 -15 -8z"/>
<path d="M228 1163 c23 -8 42 -19 42 -25 0 -6 -7 -7 -16 -4 -45 17 -64 18 -64
2 0 -10 -9 -16 -24 -16 -14 0 -27 -3 -29 -7 -3 -5 28 -7 68 -5 63 3 72 6 71
22 -1 25 -35 49 -66 49 -19 0 -16 -4 18 -16z"/>
<path d="M2296 1149 c-8 -12 -19 -18 -25 -14 -7 3 -11 -2 -11 -14 0 -28 11
-52 21 -45 5 3 18 -10 30 -28 20 -32 21 -32 15 -5 -4 17 -2 27 5 27 8 0 7 5
-2 16 -7 9 -22 14 -36 11 -13 -2 -23 0 -23 5 0 6 20 8 45 6 37 -3 43 -1 29 9
-20 14 -10 33 17 33 11 0 17 5 14 10 -11 18 -63 11 -79 -11z"/>
<path d="M2184 1108 c5 -22 2 -27 -16 -31 l-23 -4 22 -2 c16 -1 21 -6 17 -18
-5 -17 -5 -17 8 -1 8 9 25 18 38 20 l25 4 -27 12 c-14 6 -32 19 -38 29 -10 15
-10 14 -6 -9z"/>
<path d="M141 1077 c8 -7 18 -20 22 -29 7 -21 56 -24 88 -7 16 8 18 14 9 24
-8 10 -7 14 2 18 7 3 -21 6 -62 6 -61 0 -72 -2 -59 -12z m118 -21 c-10 -8 -89
-13 -89 -5 0 5 21 9 47 9 25 0 44 -2 42 -4z"/>
<path d="M1790 1050 l-85 -6 108 -2 c70 -1 106 2 102 8 -3 6 -14 9 -23 8 -9
-1 -55 -5 -102 -8z"/>
<path d="M1767 1021 c-79 -6 -97 -16 -97 -53 0 -10 8 -22 19 -27 24 -13 55 8
50 34 -6 27 -24 29 -26 3 -2 -18 0 -20 8 -8 9 13 10 13 6 0 -6 -25 -32 -17
-32 10 0 25 1 25 90 27 50 1 104 3 120 5 26 3 30 0 30 -21 0 -13 -6 -26 -14
-29 -9 -3 -11 0 -6 8 6 9 4 11 -5 5 -8 -5 -11 -3 -8 6 3 8 12 13 19 11 11 -3
11 -1 2 8 -14 15 -33 5 -33 -19 0 -27 20 -42 42 -30 20 11 24 49 6 67 -12 12
-38 13 -171 3z"/>
<path d="M2216 1004 c-38 -39 -33 -51 28 -64 70 -14 89 -35 57 -61 -12 -10
-42 -24 -64 -30 -39 -11 -40 -12 -20 -21 29 -14 86 -2 108 22 20 22 33 116 20
147 -6 16 -8 16 -16 -4 -12 -31 -33 -30 -25 1 11 43 -47 50 -88 10z m65 -4 c5
0 9 -9 9 -19 0 -17 25 -36 43 -33 4 1 7 -5 7 -13 0 -18 -12 -19 -28 -3 -12 12
-19 14 -74 25 -16 3 -28 8 -28 11 0 14 35 42 48 37 7 -3 18 -5 23 -5z"/>
<path d="M2101 1008 c-1 -11 -9 -18 -21 -18 -13 0 -18 -5 -14 -15 4 -8 10 -15
15 -15 12 0 31 39 25 53 -2 7 -5 4 -5 -5z"/>
<path d="M2036 964 c-4 -17 -3 -40 2 -53 l8 -22 13 24 c11 20 11 29 -2 53
l-15 28 -6 -30z"/>
<path d="M2182 924 c9 -3 19 -15 21 -27 4 -22 4 -22 6 -1 1 19 5 21 42 14 28
-5 37 -4 30 3 -5 5 -34 11 -63 13 -29 2 -45 1 -36 -2z"/>
<path d="M2306 818 c-11 -6 -41 -8 -72 -5 -33 3 -54 2 -54 -4 0 -6 5 -7 10 -4
11 7 14 -8 4 -18 -8 -8 -33 16 -27 25 2 4 -4 5 -13 1 -15 -6 -15 -8 5 -24 52
-42 143 -36 194 13 18 17 25 25 15 19 -11 -8 -18 -9 -23 -1 -8 13 -15 12 -39
-2z"/>
<path d="M2670 761 c0 -4 14 -11 31 -15 42 -8 57 -7 39 3 -25 14 -70 22 -70
12z"/>
<path d="M331 720 l-10 -31 29 21 c17 12 30 24 30 27 0 4 -3 3 -7 0 -3 -4 -12
-2 -18 3 -10 8 -16 3 -24 -20z"/>
<path d="M2648 728 c3 -14 2 -19 -6 -14 -7 4 -12 3 -12 -3 0 -16 88 -64 101
-55 8 4 9 3 5 -4 -5 -8 -2 -10 8 -6 27 10 18 22 -29 40 -25 9 -45 20 -45 25 0
11 57 -7 89 -27 l26 -18 -16 25 c-10 15 -33 28 -62 36 -25 6 -50 14 -56 17 -5
4 -7 -3 -3 -16z"/>
<path d="M2640 661 c19 -17 42 -31 50 -31 18 0 6 11 -45 39 l-40 23 35 -31z"/>
<path d="M1897 653 c-27 -8 -47 -17 -44 -19 2 -2 30 4 63 15 32 10 52 19 44
19 -8 0 -37 -7 -63 -15z"/>
<path d="M401 481 c-1 -8 -12 -26 -25 -40 -21 -23 -44 -71 -34 -71 2 0 20 19
39 43 27 32 34 47 28 62 -4 12 -8 14 -8 6z"/>
<path d="M403 414 c-35 -46 -45 -76 -18 -54 9 7 18 10 22 6 8 -8 43 23 43 38
0 6 -9 0 -20 -14 -24 -31 -28 -6 -4 28 30 43 9 39 -23 -4z"/>
<path d="M1623 400 c-18 -6 -35 -15 -39 -21 -4 -8 1 -9 17 -3 13 5 89 9 169 8
97 0 133 2 110 8 -57 13 -223 18 -257 8z"/>
<path d="M1117 373 c-43 -8 -77 -17 -74 -19 2 -2 52 3 111 12 85 13 120 14
169 5 70 -12 87 -8 30 8 -51 15 -141 12 -236 -6z"/>
<path d="M1453 331 c-32 -20 -91 -107 -79 -118 3 -4 62 -8 131 -9 l124 -4 -10
28 c-19 49 -51 92 -79 107 -38 19 -49 19 -87 -4z m87 -31 c25 -14 41 -44 34
-64 -5 -13 -22 -16 -80 -16 -47 0 -74 4 -74 11 0 17 66 79 85 79 9 0 25 -5 35
-10z"/>
<path d="M1750 341 c47 -5 110 -11 140 -15 47 -5 50 -4 20 4 -19 6 -82 12
-140 14 l-105 5 85 -8z"/>
<path d="M2019 339 c27 -11 196 -39 226 -38 11 0 -38 12 -110 25 -145 26 -150
27 -116 13z"/>
<path d="M1095 330 c-22 -4 14 -5 80 -2 66 3 122 6 124 8 7 7 -162 1 -204 -6z"/>
<path d="M1045 285 l-100 -13 105 6 c136 9 207 9 250 0 29 -6 32 -6 15 4 -29
17 -155 18 -270 3z"/>
<path d="M1709 279 c58 -11 264 -29 321 -28 25 1 -36 10 -135 19 -196 20 -255
23 -186 9z"/>
<path d="M2155 270 c50 -8 222 -13 214 -6 -2 2 -62 6 -134 9 -82 3 -112 2 -80
-3z"/>
<path d="M995 209 c-181 -9 -348 -18 -370 -18 -30 -1 -36 -4 -25 -11 8 -6 42
-8 75 -5 33 3 164 10 290 15 307 13 400 21 383 31 -7 5 -15 8 -18 7 -3 0 -153
-9 -335 -19z"/>
<path d="M1660 218 c-11 -4 -20 -9 -20 -11 0 -1 35 -3 78 -4 81 0 469 -19 608
-29 54 -4 84 -2 88 5 5 7 -8 11 -36 12 -24 0 -191 8 -371 17 -180 10 -337 14
-347 10z"/>
<path d="M543 169 c-20 -20 -16 -27 20 -38 43 -14 278 -16 286 -3 11 18 435
41 509 28 76 -14 35 -22 -120 -25 -84 -1 -155 -4 -157 -7 -2 -2 130 -4 295 -3
221 0 292 3 270 11 l-29 11 39 13 c21 8 53 12 69 9 17 -3 93 -7 170 -11 77 -3
151 -7 165 -9 14 -1 43 -4 65 -5 39 -2 39 -3 10 -10 -23 -6 -14 -8 38 -9 43
-1 66 3 62 9 -3 5 -2 10 4 10 5 0 13 -5 17 -11 9 -15 201 -6 217 10 8 8 7 15
-6 28 -16 16 -17 16 -17 -1 0 -18 -8 -19 -157 -13 -87 4 -254 12 -371 19 -162
8 -225 8 -263 0 -65 -15 -250 -15 -299 -1 -29 9 -119 8 -377 -5 -419 -20 -421
-20 -425 0 -2 12 -5 13 -15 3z"/>
<path d="M935 130 l-70 -6 78 -2 c50 -1 76 2 72 8 -3 6 -7 9 -8 8 -1 -1 -33
-4 -72 -8z"/>
<path d="M1743 123 c37 -2 97 -2 135 0 37 2 6 3 -68 3 -74 0 -105 -1 -67 -3z"/>
<path d="M1978 123 c17 -2 47 -2 65 0 17 2 3 4 -33 4 -36 0 -50 -2 -32 -4z"/>
</g>
</svg>
