<svg xmlns="http://www.w3.org/2000/svg" xmlns:xlink="http://www.w3.org/1999/xlink" viewBox="0 0 200 200"><defs><style>.cls-1{fill:none;}.cls-2,.cls-32{fill:#329199;}.cls-3{fill:#ffb777;}.cls-4{clip-path:url(#clip-path);}.cls-5{fill:#1c848d;}.cls-6{clip-path:url(#clip-path-2);}.cls-7{fill:#e3e4e5;}.cls-12,.cls-32,.cls-8{opacity:0.1;}.cls-9{fill:#0a0a0a;}.cls-10{clip-path:url(#clip-path-3);}.cls-11{fill:#fff;}.cls-13{fill:#4460aa;}.cls-14{fill:#f0f0f0;}.cls-15{fill:#f9d6b9;}.cls-16{fill:#e3bea3;}.cls-17{fill:#fffcf8;}.cls-18{fill:#c4c660;}.cls-19{clip-path:url(#clip-path-4);}.cls-20{fill:#f5b29c;}.cls-21{fill:#6b504d;}.cls-22{clip-path:url(#clip-path-5);}.cls-23{opacity:0.04;}.cls-24{fill:#f0b89e;}.cls-25{clip-path:url(#clip-path-6);}.cls-26{clip-path:url(#clip-path-7);}.cls-27{fill:#2d3030;}.cls-28{fill:#e5a495;}.cls-29{clip-path:url(#clip-path-8);}.cls-30{fill:#64d7c0;}.cls-31{clip-path:url(#clip-path-9);}</style><clipPath id="clip-path"><circle class="cls-1" cx="100" cy="100" r="100"/></clipPath><clipPath id="clip-path-2"><path class="cls-1" d="M158.17,200.89c-18.4,0-32.15-5.56-40.89-16.53-14.92-18.72-8.86-46-8.6-47.1l11.48,2.6c0,.23-5.08,23,6.33,37.22,6.41,8,17.19,12.06,31.68,12.06Z"/></clipPath><clipPath id="clip-path-3"><path class="cls-1" d="M120.13,203.94c0-.14-.14-69-.14-69,.26-10.06-8.56-19.16-17.4-19.43-.38,0-19-.44-19.09-.43a19,19,0,0,0-17.76,18.51l-1.31,51.53c-.18,7.5-2.57,16.9-1.84,22.3.23,1.69,11.41,11.83,44.9,10.13,5.44-.28,9.25-3.17,11.75-8A7.91,7.91,0,0,0,120.13,203.94Z"/></clipPath><clipPath id="clip-path-4"><path class="cls-1" d="M88.41,195.75c-17.27,0-28.68-4.88-34-14.53s-3.89-22.74,4-39.27A135.27,135.27,0,0,1,67,126.69a6.32,6.32,0,0,1,9.08-1.62l4.47,3.34-4.87-3.64h0a6.3,6.3,0,0,1,1.53,8.49c-7.12,11-17.83,31.62-12.07,42.12,4.42,8.06,19.84,11.38,31.13,10.55l-.13,9.52Q92.09,195.75,88.41,195.75Z"/></clipPath><clipPath id="clip-path-5"><path class="cls-1" d="M116.72,86.36a19.39,19.39,0,0,1-19.37,18.71H90.76a19.39,19.39,0,0,1-19.4-19.39L71,82.26,69,64A19.41,19.41,0,0,1,88.41,44.56H99.66c10.7,0,17.76,8.67,17.77,19.39l-.69,21.72C116.74,85.9,116.73,86.13,116.72,86.36Z"/></clipPath><clipPath id="clip-path-6"><path class="cls-1" d="M125.07,43.36a16.53,16.53,0,0,0-8.86.06s-.74-4,8.19-7.64c0,0-14.56-2.67-22.18,5.62,0,0,.74-7.67,3.93-10.34,0,0-39.17,7.84-38.07,24.4L69.8,78.34c.1,1.47,3.54,3.5,5,3.78a3.2,3.2,0,0,0,3.82-3.28l-1-15.38c0-.05-.32-8.37,5.36-8.75s7.06,3.82,16.8,4.08c7.76.21,9.35-5.54,13.53-4.78,2.2.4,4.91,7.24,5,9.48C118.33,63.49,121.64,46.05,125.07,43.36Z"/></clipPath><clipPath id="clip-path-7"><path class="cls-1" d="M91.35,74.39c0,2.06-1.37,3.74-3,3.74a4,4,0,0,1-3.76-3.74c0-2.07,2.07-3,3.76-3A2.82,2.82,0,0,1,91.35,74.39Z"/></clipPath><clipPath id="clip-path-8"><path class="cls-1" d="M106.32,74.42c0,2.07,1.36,3.75,3.05,3.75a4,4,0,0,0,3.76-3.75c0-2.07-2.08-3-3.76-3A2.81,2.81,0,0,0,106.32,74.42Z"/></clipPath><clipPath id="clip-path-9"><path class="cls-2" d="M99.53,199.63,117.88,144a5.14,5.14,0,0,1,4.88-3.54H208a5.14,5.14,0,0,1,4.78,7l-20.86,53.24S99.53,199.45,99.53,199.63Z"/></clipPath></defs><g id="Layer_2" data-name="Layer 2"><g id="_ÎÓÈ_1" data-name="—ÎÓÈ_1"><circle class="cls-3" cx="100" cy="100" r="100"/><g class="cls-4"><path class="cls-2" d="M83.78,104.65v.14H39.55V228.5H83.78v-.17a8.63,8.63,0,0,0,8.23-8.7V113.34A8.63,8.63,0,0,0,83.78,104.65Z"/><rect class="cls-5" x="34.27" y="104.63" width="9.77" height="123.71" rx="4.47"/><g class="cls-6"><path class="cls-7" d="M158.17,200.89c-18.4,0-32.15-5.56-40.89-16.53-14.92-18.72-8.86-46-8.6-47.1l11.48,2.6c0,.23-5.08,23,6.33,37.22,6.41,8,17.19,12.06,31.68,12.06Z"/><g class="cls-8"><path class="cls-9" d="M142.52,184.1s-16.33-7.34-18.81-4.6c-4.18,4.6-4.18,9.61,10.24,16.51s-6.9,19.44-18.4,11.5S96.32,175.74,94.44,163s-4.18-25.09-2.3-28.85,22.58-4,29.06-3.76,10.66,17.14,14,25.71,7.32,25.71,7.53,27.17S142.52,184.1,142.52,184.1Z"/></g></g><g class="cls-10"><path class="cls-11" d="M120.13,203.94c0-.14-.14-69-.14-69,.26-10.06-8.56-19.16-17.4-19.43-.38,0-19-.44-19.09-.43a19,19,0,0,0-17.76,18.51l-1.31,51.53c-.18,7.5-2.57,16.9-1.84,22.3.23,1.69,11.41,11.83,44.9,10.13,5.44-.28,9.25-3.17,11.75-8A7.91,7.91,0,0,0,120.13,203.94Z"/><path class="cls-12" d="M65.07,151.43l1.13,50a7.37,7.37,0,0,0,6.21,7.12L107,214.17a7.3,7.3,0,0,0,5-.95c2.83-1.72,7.06-5,6.89-9.05-.25-6.08,1.78-48.43,2.54-51.47l-.26,64.4-42.34,9.38L56.7,212.28Z"/></g><polygon class="cls-13" points="99.22 124.88 101.36 120.36 96.92 115.43 91.03 122.89 96.28 126.61 101.16 181.89 106.73 189.13 110.63 179.67 99.22 124.88"/><polygon class="cls-14" points="91.94 150.75 86.44 153.86 80.69 151.23 80.17 138.91 91.42 138.44 91.94 150.75"/><rect class="cls-13" x="80.22" y="138.65" width="11.26" height="2.39" transform="translate(-5.84 3.76) rotate(-2.42)"/><polygon class="cls-14" points="117.53 149.17 112.52 152 107.28 149.6 106.81 138.38 117.05 137.95 117.53 149.17"/><rect class="cls-13" x="106.84" y="138.14" width="10.26" height="2.18" transform="translate(-5.79 4.86) rotate(-2.42)"/><path class="cls-15" d="M99.54,113.43c.14,4,.33,5.66-3.69,5.81,0,0-10.73-1.26-10.87-5.28l-.56-15.58a7.27,7.27,0,0,1,7-7.54h0a7.29,7.29,0,0,1,7.54,7Z"/><path class="cls-16" d="M99.22,104.71c0,1-3.19,2-7.21,2.15h0c-4,.15-7.31-.58-7.35-1.63l-.14-4c0-1.05,3.19-2,7.21-2.16h0c4-.14,7.31.59,7.35,1.64Z"/><path class="cls-17" d="M101.81,123.76l-4.9-5.35,2.61-5.78S102.52,120.1,101.81,123.76Z"/><path class="cls-17" d="M96.92,118.43l-6.55,8.19a30.27,30.27,0,0,1-4.18-4.27,12.37,12.37,0,0,1-2-4.32l.71-4.59Z"/><path class="cls-18" d="M189.27,199.46H114.85a2.14,2.14,0,0,1-2.15-2.14h0a2.15,2.15,0,0,1,2.15-2.15h74.42a2.15,2.15,0,0,1,2.15,2.15h0A2.14,2.14,0,0,1,189.27,199.46Z"/><g class="cls-19"><path class="cls-11" d="M88.41,195.75c-17.27,0-28.68-4.88-34-14.53s-3.89-22.74,4-39.27A135.27,135.27,0,0,1,67,126.69a6.32,6.32,0,0,1,9.08-1.62l4.47,3.34-4.87-3.64h0a6.3,6.3,0,0,1,1.53,8.49c-7.12,11-17.83,31.62-12.07,42.12,4.42,8.06,19.84,11.38,31.13,10.55l-.13,9.52Q92.09,195.75,88.41,195.75Z"/><g class="cls-8"><path class="cls-9" d="M67.71,124.92s-19.83,33.37-13.3,48.6,21.52,19.82,32.16,19.82,4.59-6.52,1.69-7,6-4.59,6.77-4.35,8.22,10.88,8,12.09-7.74,7.74-9,7.74S67.71,198.42,62.63,196s-16-28.53-16-28.53l6-27.56Z"/></g></g><path class="cls-20" d="M114.36,191.53h-.07l-6.72-.21a2,2,0,0,1-.83-.21L102,188.79a2,2,0,1,1,1.78-3.64l4.34,2.13,6.28.2a2,2,0,0,1-.06,4.05Z"/><path class="cls-15" d="M96.24,185.93a23,23,0,0,1,5.5-.64,5.09,5.09,0,0,1,4.18,7.81h0a5.09,5.09,0,0,1-4.32,2.37H96.13Z"/><path class="cls-15" d="M116.49,192.35a1.62,1.62,0,0,1-1.38-.77l-2.74-4.4-9.58,1.48a1.62,1.62,0,1,1-.5-3.2l10.64-1.64a1.62,1.62,0,0,1,1.63.74l3.3,5.31a1.61,1.61,0,0,1-.52,2.23A1.56,1.56,0,0,1,116.49,192.35Z"/><path class="cls-15" d="M111,193.51a1.57,1.57,0,0,1-1.62-1.52l0-1.84-6.93,1.33a1.62,1.62,0,1,1-.6-3.18l8.81-1.66a1.63,1.63,0,0,1,1.92,1.56l.08,3.72a1.55,1.55,0,0,1-1.58,1.59Z"/><path class="cls-15" d="M113.45,192.41a1.62,1.62,0,0,1-1.36-.74l-3-4.72-9,1.71a1.64,1.64,0,0,1-1.9-1.3,1.62,1.62,0,0,1,1.29-1.89l10.12-1.91a1.61,1.61,0,0,1,1.66.72l3.63,5.63a1.62,1.62,0,0,1-.48,2.24A1.58,1.58,0,0,1,113.45,192.41Z"/><rect class="cls-15" x="109.88" y="76.68" width="10.24" height="10.24" rx="2.56"/><rect class="cls-20" x="111.45" y="78.25" width="7.11" height="7.11" rx="1.78"/><rect class="cls-21" x="110.24" y="56.04" width="8.3" height="21.97" rx="3.35" transform="translate(229.65 132.53) rotate(179.24)"/><g class="cls-22"><path class="cls-15" d="M116.72,86.36a19.39,19.39,0,0,1-19.37,18.71H90.76a19.39,19.39,0,0,1-19.4-19.39L71,82.26,69,64A19.41,19.41,0,0,1,88.41,44.56H99.66c10.7,0,17.76,8.67,17.77,19.39l-.69,21.72C116.74,85.9,116.73,86.13,116.72,86.36Z"/><path class="cls-23" d="M117,75.6s-.57,24.42-16.34,26.28S77,97.85,73.4,84.72s-7.05-6.11-7.05-6.11l1.38,35.59L104.37,109l19.52-19.65Z"/></g><path class="cls-24" d="M103,83.66h0a3.16,3.16,0,0,1-3.11,2.94H97.55a2.93,2.93,0,0,1-2.94-2.94h0c0-1.23,1.77-11.43,2.47-15.26A1.76,1.76,0,0,1,98.81,67h0a1.76,1.76,0,0,1,1.73,1.45c.69,3.83,2.5,14,2.5,15.26Z"/><path class="cls-11" d="M105.12,92a.7.7,0,0,1,.61,1c-1.13,1.92-3.79,5.77-6.9,5.78s-5.77-3.86-6.9-5.77a.7.7,0,0,1,.6-1Z"/><g class="cls-25"><path class="cls-21" d="M125.07,43.36a16.53,16.53,0,0,0-8.86.06s-.74-4,8.19-7.64c0,0-14.56-2.67-22.18,5.62,0,0,.74-7.67,3.93-10.34,0,0-39.17,7.84-38.07,24.4L69.8,78.34c.1,1.47,3.54,3.5,5,3.78a3.2,3.2,0,0,0,3.82-3.28l-1-15.38c0-.05-.32-8.37,5.36-8.75s7.06,3.82,16.8,4.08c7.76.21,9.35-5.54,13.53-4.78,2.2.4,4.91,7.24,5,9.48C118.33,63.49,121.64,46.05,125.07,43.36Z"/><path class="cls-12" d="M107,30.89c-20,8.1-16.28,11-16.28,11s6.38-2.52,11.77-.38c0,0,2.81-4,7-5.4C115.57,34,124,34.31,125.6,36c0,0-16.27,2-21,11.31,0,0,12-4.81,20.58-4.79s8.46-13,6.89-13.56S107,30.89,107,30.89Z"/><path class="cls-12" d="M65.3,51.55s8.1,15.13,31.9,13,25.2-7.87,25.2-7.87l.93,31.87L65.56,86.72Z"/></g><g class="cls-26"><path class="cls-11" d="M91.35,74.39c0,2.06-1.37,3.74-3,3.74a4,4,0,0,1-3.76-3.74c0-2.07,2.07-3,3.76-3A2.82,2.82,0,0,1,91.35,74.39Z"/><path class="cls-27" d="M90.3,75.81a1.86,1.86,0,1,1-1.82-2.23A2.06,2.06,0,0,1,90.3,75.81Z"/><path class="cls-11" d="M89,74.79a.86.86,0,1,1-.84-1A.95.95,0,0,1,89,74.79Z"/><rect class="cls-28" x="83.64" y="65.15" width="8.63" height="4.7"/><rect class="cls-28" x="83.64" y="77.83" width="8.63" height="4.7"/></g><g class="cls-29"><path class="cls-11" d="M106.32,74.42c0,2.07,1.36,3.75,3.05,3.75a4,4,0,0,0,3.76-3.75c0-2.07-2.08-3-3.76-3A2.81,2.81,0,0,0,106.32,74.42Z"/><path class="cls-27" d="M107.73,75.85a1.85,1.85,0,1,0,1.82-2.23A2.05,2.05,0,0,0,107.73,75.85Z"/><path class="cls-11" d="M108.25,74.86a.86.86,0,1,0,.84-1A1,1,0,0,0,108.25,74.86Z"/><rect class="cls-28" x="105.4" y="65.19" width="8.63" height="4.7" transform="translate(219.42 135.07) rotate(180)"/><rect class="cls-28" x="105.4" y="77.87" width="8.63" height="4.7" transform="translate(219.42 160.44) rotate(180)"/></g><path class="cls-15" d="M75.37,83.73a2.42,2.42,0,0,1-2.25,2.56H68.61a2.42,2.42,0,0,1-2.26-2.56V78.61a2.42,2.42,0,0,1,2.25-2.56h4.51a2.43,2.43,0,0,1,2.26,2.57Z"/><path class="cls-20" d="M74.72,82.94c0,1-.59,1.78-1.32,1.78H70.75c-.73,0-1.33-.79-1.33-1.77V79.39c0-1,.6-1.78,1.33-1.78H73.4c.73,0,1.32.8,1.32,1.78Z"/><rect class="cls-21" x="81.5" y="64.97" width="10.62" height="3.9" rx="1.57" transform="translate(186.62 112.24) rotate(166.8)"/><rect class="cls-21" x="106.85" y="65.43" width="9.58" height="3.97" rx="1.13" transform="translate(26.48 -31.36) rotate(18.11)"/><path class="cls-2" d="M162.36,199.46H87.94a2.15,2.15,0,0,1-2.15-2.14h0a2.15,2.15,0,0,1,2.15-2.15h74.42a2.15,2.15,0,0,1,2.15,2.15h0A2.14,2.14,0,0,1,162.36,199.46Z"/><path class="cls-30" d="M97.87,199.63,116.22,144a5.14,5.14,0,0,1,4.88-3.54h85.24a5.14,5.14,0,0,1,4.78,7l-20.86,53.24S97.87,199.45,97.87,199.63Z"/><path class="cls-2" d="M99.53,199.63,117.88,144a5.14,5.14,0,0,1,4.88-3.54H208a5.14,5.14,0,0,1,4.78,7l-20.86,53.24S99.53,199.45,99.53,199.63Z"/><g class="cls-31"><path class="cls-2" d="M99.53,199.63,117.88,144a5.14,5.14,0,0,1,4.88-3.54H208a5.14,5.14,0,0,1,4.78,7l-20.86,53.24S99.53,199.45,99.53,199.63Z"/><path class="cls-32" d="M99.53,199.63,119,140.43h96.49S99.53,199.45,99.53,199.63Z"/></g></g></g></g></svg>
